<?xml version="1.0" encoding="UTF-8" standalone="no"?>
<!DOCTYPE svg PUBLIC "-//W3C//DTD SVG 1.1//EN"
 "http://www.w3.org/Graphics/SVG/1.1/DTD/svg11.dtd">
<!-- Generated by graphviz version 2.43.0 (0)
 -->
<!-- Title: G Pages: 1 -->
<svg width="793pt" height="1278pt"
 viewBox="0.00 0.00 446.00 719.00" xmlns="http://www.w3.org/2000/svg" xmlns:xlink="http://www.w3.org/1999/xlink">
<g id="graph0" class="graph" transform="scale(0.56 0.56) rotate(0) translate(4 715)">
<title>G</title>
<polygon fill="white" stroke="transparent" points="-4,4 -4,-715 442,-715 442,4 -4,4"/>
<!-- 140421026476720 -->
<g id="node1" class="node">
<title>140421026476720</title>
<polygon fill="none" stroke="black" points="0,-664.5 0,-710.5 438,-710.5 438,-664.5 0,-664.5"/>
<text text-anchor="middle" x="131" y="-683.8" font-family="Times,serif" font-size="14.00">zero_padding2d_input: InputLayer</text>
<polyline fill="none" stroke="black" points="262,-664.5 262,-710.5 "/>
<text text-anchor="middle" x="296" y="-695.3" font-family="Times,serif" font-size="14.00">input:</text>
<polyline fill="none" stroke="black" points="262,-687.5 330,-687.5 "/>
<text text-anchor="middle" x="296" y="-672.3" font-family="Times,serif" font-size="14.00">output:</text>
<polyline fill="none" stroke="black" points="330,-664.5 330,-710.5 "/>
<text text-anchor="middle" x="384" y="-695.3" font-family="Times,serif" font-size="14.00">[(?, 3, 14, 1)]</text>
<polyline fill="none" stroke="black" points="330,-687.5 438,-687.5 "/>
<text text-anchor="middle" x="384" y="-672.3" font-family="Times,serif" font-size="14.00">[(?, 3, 14, 1)]</text>
</g>
<!-- 140421026037184 -->
<g id="node2" class="node">
<title>140421026037184</title>
<polygon fill="none" stroke="black" points="11,-581.5 11,-627.5 427,-627.5 427,-581.5 11,-581.5"/>
<text text-anchor="middle" x="136" y="-600.8" font-family="Times,serif" font-size="14.00">zero_padding2d: ZeroPadding2D</text>
<polyline fill="none" stroke="black" points="261,-581.5 261,-627.5 "/>
<text text-anchor="middle" x="295" y="-612.3" font-family="Times,serif" font-size="14.00">input:</text>
<polyline fill="none" stroke="black" points="261,-604.5 329,-604.5 "/>
<text text-anchor="middle" x="295" y="-589.3" font-family="Times,serif" font-size="14.00">output:</text>
<polyline fill="none" stroke="black" points="329,-581.5 329,-627.5 "/>
<text text-anchor="middle" x="378" y="-612.3" font-family="Times,serif" font-size="14.00">(?, 3, 14, 1)</text>
<polyline fill="none" stroke="black" points="329,-604.5 427,-604.5 "/>
<text text-anchor="middle" x="378" y="-589.3" font-family="Times,serif" font-size="14.00">(?, 7, 18, 1)</text>
</g>
<!-- 140421026476720&#45;&gt;140421026037184 -->
<g id="edge1" class="edge">
<title>140421026476720&#45;&gt;140421026037184</title>
<path fill="none" stroke="black" d="M219,-664.37C219,-656.15 219,-646.66 219,-637.73"/>
<polygon fill="black" stroke="black" points="222.5,-637.61 219,-627.61 215.5,-637.61 222.5,-637.61"/>
</g>
<!-- 140421026103744 -->
<g id="node3" class="node">
<title>140421026103744</title>
<polygon fill="none" stroke="black" points="65,-498.5 65,-544.5 373,-544.5 373,-498.5 65,-498.5"/>
<text text-anchor="middle" x="131.5" y="-517.8" font-family="Times,serif" font-size="14.00">conv2d: Conv2D</text>
<polyline fill="none" stroke="black" points="198,-498.5 198,-544.5 "/>
<text text-anchor="middle" x="232" y="-529.3" font-family="Times,serif" font-size="14.00">input:</text>
<polyline fill="none" stroke="black" points="198,-521.5 266,-521.5 "/>
<text text-anchor="middle" x="232" y="-506.3" font-family="Times,serif" font-size="14.00">output:</text>
<polyline fill="none" stroke="black" points="266,-498.5 266,-544.5 "/>
<text text-anchor="middle" x="319.5" y="-529.3" font-family="Times,serif" font-size="14.00">(?, 7, 18, 1)</text>
<polyline fill="none" stroke="black" points="266,-521.5 373,-521.5 "/>
<text text-anchor="middle" x="319.5" y="-506.3" font-family="Times,serif" font-size="14.00">(?, 5, 16, 16)</text>
</g>
<!-- 140421026037184&#45;&gt;140421026103744 -->
<g id="edge2" class="edge">
<title>140421026037184&#45;&gt;140421026103744</title>
<path fill="none" stroke="black" d="M219,-581.37C219,-573.15 219,-563.66 219,-554.73"/>
<polygon fill="black" stroke="black" points="222.5,-554.61 219,-544.61 215.5,-554.61 222.5,-554.61"/>
</g>
<!-- 140421026105712 -->
<g id="node4" class="node">
<title>140421026105712</title>
<polygon fill="none" stroke="black" points="13.5,-415.5 13.5,-461.5 424.5,-461.5 424.5,-415.5 13.5,-415.5"/>
<text text-anchor="middle" x="131.5" y="-434.8" font-family="Times,serif" font-size="14.00">max_pooling2d: MaxPooling2D</text>
<polyline fill="none" stroke="black" points="249.5,-415.5 249.5,-461.5 "/>
<text text-anchor="middle" x="283.5" y="-446.3" font-family="Times,serif" font-size="14.00">input:</text>
<polyline fill="none" stroke="black" points="249.5,-438.5 317.5,-438.5 "/>
<text text-anchor="middle" x="283.5" y="-423.3" font-family="Times,serif" font-size="14.00">output:</text>
<polyline fill="none" stroke="black" points="317.5,-415.5 317.5,-461.5 "/>
<text text-anchor="middle" x="371" y="-446.3" font-family="Times,serif" font-size="14.00">(?, 5, 16, 16)</text>
<polyline fill="none" stroke="black" points="317.5,-438.5 424.5,-438.5 "/>
<text text-anchor="middle" x="371" y="-423.3" font-family="Times,serif" font-size="14.00">(?, 2, 8, 16)</text>
</g>
<!-- 140421026103744&#45;&gt;140421026105712 -->
<g id="edge3" class="edge">
<title>140421026103744&#45;&gt;140421026105712</title>
<path fill="none" stroke="black" d="M219,-498.37C219,-490.15 219,-480.66 219,-471.73"/>
<polygon fill="black" stroke="black" points="222.5,-471.61 219,-461.61 215.5,-471.61 222.5,-471.61"/>
</g>
<!-- 140421026106960 -->
<g id="node5" class="node">
<title>140421026106960</title>
<polygon fill="none" stroke="black" points="74,-332.5 74,-378.5 364,-378.5 364,-332.5 74,-332.5"/>
<text text-anchor="middle" x="136" y="-351.8" font-family="Times,serif" font-size="14.00">flatten: Flatten</text>
<polyline fill="none" stroke="black" points="198,-332.5 198,-378.5 "/>
<text text-anchor="middle" x="232" y="-363.3" font-family="Times,serif" font-size="14.00">input:</text>
<polyline fill="none" stroke="black" points="198,-355.5 266,-355.5 "/>
<text text-anchor="middle" x="232" y="-340.3" font-family="Times,serif" font-size="14.00">output:</text>
<polyline fill="none" stroke="black" points="266,-332.5 266,-378.5 "/>
<text text-anchor="middle" x="315" y="-363.3" font-family="Times,serif" font-size="14.00">(?, 2, 8, 16)</text>
<polyline fill="none" stroke="black" points="266,-355.5 364,-355.5 "/>
<text text-anchor="middle" x="315" y="-340.3" font-family="Times,serif" font-size="14.00">(?, 256)</text>
</g>
<!-- 140421026105712&#45;&gt;140421026106960 -->
<g id="edge4" class="edge">
<title>140421026105712&#45;&gt;140421026106960</title>
<path fill="none" stroke="black" d="M219,-415.37C219,-407.15 219,-397.66 219,-388.73"/>
<polygon fill="black" stroke="black" points="222.5,-388.61 219,-378.61 215.5,-388.61 222.5,-388.61"/>
</g>
<!-- 140421026107792 -->
<g id="node6" class="node">
<title>140421026107792</title>
<polygon fill="none" stroke="black" points="57,-249.5 57,-295.5 381,-295.5 381,-249.5 57,-249.5"/>
<text text-anchor="middle" x="149.5" y="-268.8" font-family="Times,serif" font-size="14.00">Hidden_Layer_1: Dense</text>
<polyline fill="none" stroke="black" points="242,-249.5 242,-295.5 "/>
<text text-anchor="middle" x="276" y="-280.3" font-family="Times,serif" font-size="14.00">input:</text>
<polyline fill="none" stroke="black" points="242,-272.5 310,-272.5 "/>
<text text-anchor="middle" x="276" y="-257.3" font-family="Times,serif" font-size="14.00">output:</text>
<polyline fill="none" stroke="black" points="310,-249.5 310,-295.5 "/>
<text text-anchor="middle" x="345.5" y="-280.3" font-family="Times,serif" font-size="14.00">(?, 256)</text>
<polyline fill="none" stroke="black" points="310,-272.5 381,-272.5 "/>
<text text-anchor="middle" x="345.5" y="-257.3" font-family="Times,serif" font-size="14.00">(?, 128)</text>
</g>
<!-- 140421026106960&#45;&gt;140421026107792 -->
<g id="edge5" class="edge">
<title>140421026106960&#45;&gt;140421026107792</title>
<path fill="none" stroke="black" d="M219,-332.37C219,-324.15 219,-314.66 219,-305.73"/>
<polygon fill="black" stroke="black" points="222.5,-305.61 219,-295.61 215.5,-305.61 222.5,-305.61"/>
</g>
<!-- 140421026109568 -->
<g id="node7" class="node">
<title>140421026109568</title>
<polygon fill="none" stroke="black" points="57,-166.5 57,-212.5 381,-212.5 381,-166.5 57,-166.5"/>
<text text-anchor="middle" x="149.5" y="-185.8" font-family="Times,serif" font-size="14.00">Hidden_Layer_2: Dense</text>
<polyline fill="none" stroke="black" points="242,-166.5 242,-212.5 "/>
<text text-anchor="middle" x="276" y="-197.3" font-family="Times,serif" font-size="14.00">input:</text>
<polyline fill="none" stroke="black" points="242,-189.5 310,-189.5 "/>
<text text-anchor="middle" x="276" y="-174.3" font-family="Times,serif" font-size="14.00">output:</text>
<polyline fill="none" stroke="black" points="310,-166.5 310,-212.5 "/>
<text text-anchor="middle" x="345.5" y="-197.3" font-family="Times,serif" font-size="14.00">(?, 128)</text>
<polyline fill="none" stroke="black" points="310,-189.5 381,-189.5 "/>
<text text-anchor="middle" x="345.5" y="-174.3" font-family="Times,serif" font-size="14.00">(?, 64)</text>
</g>
<!-- 140421026107792&#45;&gt;140421026109568 -->
<g id="edge6" class="edge">
<title>140421026107792&#45;&gt;140421026109568</title>
<path fill="none" stroke="black" d="M219,-249.37C219,-241.15 219,-231.66 219,-222.73"/>
<polygon fill="black" stroke="black" points="222.5,-222.61 219,-212.61 215.5,-222.61 222.5,-222.61"/>
</g>
<!-- 140421026111440 -->
<g id="node8" class="node">
<title>140421026111440</title>
<polygon fill="none" stroke="black" points="61.5,-83.5 61.5,-129.5 376.5,-129.5 376.5,-83.5 61.5,-83.5"/>
<text text-anchor="middle" x="154" y="-102.8" font-family="Times,serif" font-size="14.00">Hidden_Layer_3: Dense</text>
<polyline fill="none" stroke="black" points="246.5,-83.5 246.5,-129.5 "/>
<text text-anchor="middle" x="280.5" y="-114.3" font-family="Times,serif" font-size="14.00">input:</text>
<polyline fill="none" stroke="black" points="246.5,-106.5 314.5,-106.5 "/>
<text text-anchor="middle" x="280.5" y="-91.3" font-family="Times,serif" font-size="14.00">output:</text>
<polyline fill="none" stroke="black" points="314.5,-83.5 314.5,-129.5 "/>
<text text-anchor="middle" x="345.5" y="-114.3" font-family="Times,serif" font-size="14.00">(?, 64)</text>
<polyline fill="none" stroke="black" points="314.5,-106.5 376.5,-106.5 "/>
<text text-anchor="middle" x="345.5" y="-91.3" font-family="Times,serif" font-size="14.00">(?, 16)</text>
</g>
<!-- 140421026109568&#45;&gt;140421026111440 -->
<g id="edge7" class="edge">
<title>140421026109568&#45;&gt;140421026111440</title>
<path fill="none" stroke="black" d="M219,-166.37C219,-158.15 219,-148.66 219,-139.73"/>
<polygon fill="black" stroke="black" points="222.5,-139.61 219,-129.61 215.5,-139.61 222.5,-139.61"/>
</g>
<!-- 140421026133856 -->
<g id="node9" class="node">
<title>140421026133856</title>
<polygon fill="none" stroke="black" points="98,-0.5 98,-46.5 340,-46.5 340,-0.5 98,-0.5"/>
<text text-anchor="middle" x="154" y="-19.8" font-family="Times,serif" font-size="14.00">dense: Dense</text>
<polyline fill="none" stroke="black" points="210,-0.5 210,-46.5 "/>
<text text-anchor="middle" x="244" y="-31.3" font-family="Times,serif" font-size="14.00">input:</text>
<polyline fill="none" stroke="black" points="210,-23.5 278,-23.5 "/>
<text text-anchor="middle" x="244" y="-8.3" font-family="Times,serif" font-size="14.00">output:</text>
<polyline fill="none" stroke="black" points="278,-0.5 278,-46.5 "/>
<text text-anchor="middle" x="309" y="-31.3" font-family="Times,serif" font-size="14.00">(?, 16)</text>
<polyline fill="none" stroke="black" points="278,-23.5 340,-23.5 "/>
<text text-anchor="middle" x="309" y="-8.3" font-family="Times,serif" font-size="14.00">(?, 14)</text>
</g>
<!-- 140421026111440&#45;&gt;140421026133856 -->
<g id="edge8" class="edge">
<title>140421026111440&#45;&gt;140421026133856</title>
<path fill="none" stroke="black" d="M219,-83.37C219,-75.15 219,-65.66 219,-56.73"/>
<polygon fill="black" stroke="black" points="222.5,-56.61 219,-46.61 215.5,-56.61 222.5,-56.61"/>
</g>
</g>
</svg>
