<?xml version="1.0" encoding="UTF-8" standalone="no"?>
<!DOCTYPE svg PUBLIC "-//W3C//DTD SVG 1.1//EN"
 "http://www.w3.org/Graphics/SVG/1.1/DTD/svg11.dtd">
<!-- Generated by graphviz version 2.43.0 (0)
 -->
<!-- Title: G Pages: 1 -->
<svg width="642pt" height="836pt"
 viewBox="0.00 0.00 361.00 470.00" xmlns="http://www.w3.org/2000/svg" xmlns:xlink="http://www.w3.org/1999/xlink">
<g id="graph0" class="graph" transform="scale(0.56 0.56) rotate(0) translate(4 466)">
<title>G</title>
<polygon fill="white" stroke="transparent" points="-4,4 -4,-466 357,-466 357,4 -4,4"/>
<!-- 140421027865648 -->
<g id="node1" class="node">
<title>140421027865648</title>
<polygon fill="none" stroke="black" points="0,-415.5 0,-461.5 353,-461.5 353,-415.5 0,-415.5"/>
<text text-anchor="middle" x="97.5" y="-434.8" font-family="Times,serif" font-size="14.00">flatten_input: InputLayer</text>
<polyline fill="none" stroke="black" points="195,-415.5 195,-461.5 "/>
<text text-anchor="middle" x="229" y="-446.3" font-family="Times,serif" font-size="14.00">input:</text>
<polyline fill="none" stroke="black" points="195,-438.5 263,-438.5 "/>
<text text-anchor="middle" x="229" y="-423.3" font-family="Times,serif" font-size="14.00">output:</text>
<polyline fill="none" stroke="black" points="263,-415.5 263,-461.5 "/>
<text text-anchor="middle" x="308" y="-446.3" font-family="Times,serif" font-size="14.00">[(?, 3, 14)]</text>
<polyline fill="none" stroke="black" points="263,-438.5 353,-438.5 "/>
<text text-anchor="middle" x="308" y="-423.3" font-family="Times,serif" font-size="14.00">[(?, 3, 14)]</text>
</g>
<!-- 140421027901840 -->
<g id="node2" class="node">
<title>140421027901840</title>
<polygon fill="none" stroke="black" points="40.5,-332.5 40.5,-378.5 312.5,-378.5 312.5,-332.5 40.5,-332.5"/>
<text text-anchor="middle" x="102.5" y="-351.8" font-family="Times,serif" font-size="14.00">flatten: Flatten</text>
<polyline fill="none" stroke="black" points="164.5,-332.5 164.5,-378.5 "/>
<text text-anchor="middle" x="198.5" y="-363.3" font-family="Times,serif" font-size="14.00">input:</text>
<polyline fill="none" stroke="black" points="164.5,-355.5 232.5,-355.5 "/>
<text text-anchor="middle" x="198.5" y="-340.3" font-family="Times,serif" font-size="14.00">output:</text>
<polyline fill="none" stroke="black" points="232.5,-332.5 232.5,-378.5 "/>
<text text-anchor="middle" x="272.5" y="-363.3" font-family="Times,serif" font-size="14.00">(?, 3, 14)</text>
<polyline fill="none" stroke="black" points="232.5,-355.5 312.5,-355.5 "/>
<text text-anchor="middle" x="272.5" y="-340.3" font-family="Times,serif" font-size="14.00">(?, 42)</text>
</g>
<!-- 140421027865648&#45;&gt;140421027901840 -->
<g id="edge1" class="edge">
<title>140421027865648&#45;&gt;140421027901840</title>
<path fill="none" stroke="black" d="M176.5,-415.37C176.5,-407.15 176.5,-397.66 176.5,-388.73"/>
<polygon fill="black" stroke="black" points="180,-388.61 176.5,-378.61 173,-388.61 180,-388.61"/>
</g>
<!-- 140421027903088 -->
<g id="node3" class="node">
<title>140421027903088</title>
<polygon fill="none" stroke="black" points="14.5,-249.5 14.5,-295.5 338.5,-295.5 338.5,-249.5 14.5,-249.5"/>
<text text-anchor="middle" x="107" y="-268.8" font-family="Times,serif" font-size="14.00">Hidden_Layer_1: Dense</text>
<polyline fill="none" stroke="black" points="199.5,-249.5 199.5,-295.5 "/>
<text text-anchor="middle" x="233.5" y="-280.3" font-family="Times,serif" font-size="14.00">input:</text>
<polyline fill="none" stroke="black" points="199.5,-272.5 267.5,-272.5 "/>
<text text-anchor="middle" x="233.5" y="-257.3" font-family="Times,serif" font-size="14.00">output:</text>
<polyline fill="none" stroke="black" points="267.5,-249.5 267.5,-295.5 "/>
<text text-anchor="middle" x="303" y="-280.3" font-family="Times,serif" font-size="14.00">(?, 42)</text>
<polyline fill="none" stroke="black" points="267.5,-272.5 338.5,-272.5 "/>
<text text-anchor="middle" x="303" y="-257.3" font-family="Times,serif" font-size="14.00">(?, 128)</text>
</g>
<!-- 140421027901840&#45;&gt;140421027903088 -->
<g id="edge2" class="edge">
<title>140421027901840&#45;&gt;140421027903088</title>
<path fill="none" stroke="black" d="M176.5,-332.37C176.5,-324.15 176.5,-314.66 176.5,-305.73"/>
<polygon fill="black" stroke="black" points="180,-305.61 176.5,-295.61 173,-305.61 180,-305.61"/>
</g>
<!-- 140421027904864 -->
<g id="node4" class="node">
<title>140421027904864</title>
<polygon fill="none" stroke="black" points="14.5,-166.5 14.5,-212.5 338.5,-212.5 338.5,-166.5 14.5,-166.5"/>
<text text-anchor="middle" x="107" y="-185.8" font-family="Times,serif" font-size="14.00">Hidden_Layer_2: Dense</text>
<polyline fill="none" stroke="black" points="199.5,-166.5 199.5,-212.5 "/>
<text text-anchor="middle" x="233.5" y="-197.3" font-family="Times,serif" font-size="14.00">input:</text>
<polyline fill="none" stroke="black" points="199.5,-189.5 267.5,-189.5 "/>
<text text-anchor="middle" x="233.5" y="-174.3" font-family="Times,serif" font-size="14.00">output:</text>
<polyline fill="none" stroke="black" points="267.5,-166.5 267.5,-212.5 "/>
<text text-anchor="middle" x="303" y="-197.3" font-family="Times,serif" font-size="14.00">(?, 128)</text>
<polyline fill="none" stroke="black" points="267.5,-189.5 338.5,-189.5 "/>
<text text-anchor="middle" x="303" y="-174.3" font-family="Times,serif" font-size="14.00">(?, 64)</text>
</g>
<!-- 140421027903088&#45;&gt;140421027904864 -->
<g id="edge3" class="edge">
<title>140421027903088&#45;&gt;140421027904864</title>
<path fill="none" stroke="black" d="M176.5,-249.37C176.5,-241.15 176.5,-231.66 176.5,-222.73"/>
<polygon fill="black" stroke="black" points="180,-222.61 176.5,-212.61 173,-222.61 180,-222.61"/>
</g>
<!-- 140421027943664 -->
<g id="node5" class="node">
<title>140421027943664</title>
<polygon fill="none" stroke="black" points="19,-83.5 19,-129.5 334,-129.5 334,-83.5 19,-83.5"/>
<text text-anchor="middle" x="111.5" y="-102.8" font-family="Times,serif" font-size="14.00">Hidden_Layer_3: Dense</text>
<polyline fill="none" stroke="black" points="204,-83.5 204,-129.5 "/>
<text text-anchor="middle" x="238" y="-114.3" font-family="Times,serif" font-size="14.00">input:</text>
<polyline fill="none" stroke="black" points="204,-106.5 272,-106.5 "/>
<text text-anchor="middle" x="238" y="-91.3" font-family="Times,serif" font-size="14.00">output:</text>
<polyline fill="none" stroke="black" points="272,-83.5 272,-129.5 "/>
<text text-anchor="middle" x="303" y="-114.3" font-family="Times,serif" font-size="14.00">(?, 64)</text>
<polyline fill="none" stroke="black" points="272,-106.5 334,-106.5 "/>
<text text-anchor="middle" x="303" y="-91.3" font-family="Times,serif" font-size="14.00">(?, 16)</text>
</g>
<!-- 140421027904864&#45;&gt;140421027943664 -->
<g id="edge4" class="edge">
<title>140421027904864&#45;&gt;140421027943664</title>
<path fill="none" stroke="black" d="M176.5,-166.37C176.5,-158.15 176.5,-148.66 176.5,-139.73"/>
<polygon fill="black" stroke="black" points="180,-139.61 176.5,-129.61 173,-139.61 180,-139.61"/>
</g>
<!-- 140421027945536 -->
<g id="node6" class="node">
<title>140421027945536</title>
<polygon fill="none" stroke="black" points="53,-0.5 53,-46.5 300,-46.5 300,-0.5 53,-0.5"/>
<text text-anchor="middle" x="111.5" y="-19.8" font-family="Times,serif" font-size="14.00">output: Dense</text>
<polyline fill="none" stroke="black" points="170,-0.5 170,-46.5 "/>
<text text-anchor="middle" x="204" y="-31.3" font-family="Times,serif" font-size="14.00">input:</text>
<polyline fill="none" stroke="black" points="170,-23.5 238,-23.5 "/>
<text text-anchor="middle" x="204" y="-8.3" font-family="Times,serif" font-size="14.00">output:</text>
<polyline fill="none" stroke="black" points="238,-0.5 238,-46.5 "/>
<text text-anchor="middle" x="269" y="-31.3" font-family="Times,serif" font-size="14.00">(?, 16)</text>
<polyline fill="none" stroke="black" points="238,-23.5 300,-23.5 "/>
<text text-anchor="middle" x="269" y="-8.3" font-family="Times,serif" font-size="14.00">(?, 14)</text>
</g>
<!-- 140421027943664&#45;&gt;140421027945536 -->
<g id="edge5" class="edge">
<title>140421027943664&#45;&gt;140421027945536</title>
<path fill="none" stroke="black" d="M176.5,-83.37C176.5,-75.15 176.5,-65.66 176.5,-56.73"/>
<polygon fill="black" stroke="black" points="180,-56.61 176.5,-46.61 173,-56.61 180,-56.61"/>
</g>
</g>
</svg>
