<?xml version="1.0" encoding="UTF-8" standalone="no"?>
<!DOCTYPE svg PUBLIC "-//W3C//DTD SVG 1.1//EN"
 "http://www.w3.org/Graphics/SVG/1.1/DTD/svg11.dtd">
<!-- Generated by graphviz version 2.43.0 (0)
 -->
<!-- Title: G Pages: 1 -->
<svg width="697pt" height="1131pt"
 viewBox="0.00 0.00 392.00 636.00" xmlns="http://www.w3.org/2000/svg" xmlns:xlink="http://www.w3.org/1999/xlink">
<g id="graph0" class="graph" transform="scale(0.56 0.56) rotate(0) translate(4 632)">
<title>G</title>
<polygon fill="white" stroke="transparent" points="-4,4 -4,-632 388,-632 388,4 -4,4"/>
<!-- 140421023392624 -->
<g id="node1" class="node">
<title>140421023392624</title>
<polygon fill="none" stroke="black" points="13,-581.5 13,-627.5 371,-627.5 371,-581.5 13,-581.5"/>
<text text-anchor="middle" x="113" y="-600.8" font-family="Times,serif" font-size="14.00">conv1d_input: InputLayer</text>
<polyline fill="none" stroke="black" points="213,-581.5 213,-627.5 "/>
<text text-anchor="middle" x="247" y="-612.3" font-family="Times,serif" font-size="14.00">input:</text>
<polyline fill="none" stroke="black" points="213,-604.5 281,-604.5 "/>
<text text-anchor="middle" x="247" y="-589.3" font-family="Times,serif" font-size="14.00">output:</text>
<polyline fill="none" stroke="black" points="281,-581.5 281,-627.5 "/>
<text text-anchor="middle" x="326" y="-612.3" font-family="Times,serif" font-size="14.00">[(?, 3, 14)]</text>
<polyline fill="none" stroke="black" points="281,-604.5 371,-604.5 "/>
<text text-anchor="middle" x="326" y="-589.3" font-family="Times,serif" font-size="14.00">[(?, 3, 14)]</text>
</g>
<!-- 140421023954544 -->
<g id="node2" class="node">
<title>140421023954544</title>
<polygon fill="none" stroke="black" points="51.5,-498.5 51.5,-544.5 332.5,-544.5 332.5,-498.5 51.5,-498.5"/>
<text text-anchor="middle" x="118" y="-517.8" font-family="Times,serif" font-size="14.00">conv1d: Conv1D</text>
<polyline fill="none" stroke="black" points="184.5,-498.5 184.5,-544.5 "/>
<text text-anchor="middle" x="218.5" y="-529.3" font-family="Times,serif" font-size="14.00">input:</text>
<polyline fill="none" stroke="black" points="184.5,-521.5 252.5,-521.5 "/>
<text text-anchor="middle" x="218.5" y="-506.3" font-family="Times,serif" font-size="14.00">output:</text>
<polyline fill="none" stroke="black" points="252.5,-498.5 252.5,-544.5 "/>
<text text-anchor="middle" x="292.5" y="-529.3" font-family="Times,serif" font-size="14.00">(?, 3, 14)</text>
<polyline fill="none" stroke="black" points="252.5,-521.5 332.5,-521.5 "/>
<text text-anchor="middle" x="292.5" y="-506.3" font-family="Times,serif" font-size="14.00">(?, 2, 16)</text>
</g>
<!-- 140421023392624&#45;&gt;140421023954544 -->
<g id="edge1" class="edge">
<title>140421023392624&#45;&gt;140421023954544</title>
<path fill="none" stroke="black" d="M192,-581.37C192,-573.15 192,-563.66 192,-554.73"/>
<polygon fill="black" stroke="black" points="195.5,-554.61 192,-544.61 188.5,-554.61 195.5,-554.61"/>
</g>
<!-- 140421023956800 -->
<g id="node3" class="node">
<title>140421023956800</title>
<polygon fill="none" stroke="black" points="0,-415.5 0,-461.5 384,-461.5 384,-415.5 0,-415.5"/>
<text text-anchor="middle" x="118" y="-434.8" font-family="Times,serif" font-size="14.00">max_pooling1d: MaxPooling1D</text>
<polyline fill="none" stroke="black" points="236,-415.5 236,-461.5 "/>
<text text-anchor="middle" x="270" y="-446.3" font-family="Times,serif" font-size="14.00">input:</text>
<polyline fill="none" stroke="black" points="236,-438.5 304,-438.5 "/>
<text text-anchor="middle" x="270" y="-423.3" font-family="Times,serif" font-size="14.00">output:</text>
<polyline fill="none" stroke="black" points="304,-415.5 304,-461.5 "/>
<text text-anchor="middle" x="344" y="-446.3" font-family="Times,serif" font-size="14.00">(?, 2, 16)</text>
<polyline fill="none" stroke="black" points="304,-438.5 384,-438.5 "/>
<text text-anchor="middle" x="344" y="-423.3" font-family="Times,serif" font-size="14.00">(?, 1, 16)</text>
</g>
<!-- 140421023954544&#45;&gt;140421023956800 -->
<g id="edge2" class="edge">
<title>140421023954544&#45;&gt;140421023956800</title>
<path fill="none" stroke="black" d="M192,-498.37C192,-490.15 192,-480.66 192,-471.73"/>
<polygon fill="black" stroke="black" points="195.5,-471.61 192,-461.61 188.5,-471.61 195.5,-471.61"/>
</g>
<!-- 140421023986496 -->
<g id="node4" class="node">
<title>140421023986496</title>
<polygon fill="none" stroke="black" points="56,-332.5 56,-378.5 328,-378.5 328,-332.5 56,-332.5"/>
<text text-anchor="middle" x="118" y="-351.8" font-family="Times,serif" font-size="14.00">flatten: Flatten</text>
<polyline fill="none" stroke="black" points="180,-332.5 180,-378.5 "/>
<text text-anchor="middle" x="214" y="-363.3" font-family="Times,serif" font-size="14.00">input:</text>
<polyline fill="none" stroke="black" points="180,-355.5 248,-355.5 "/>
<text text-anchor="middle" x="214" y="-340.3" font-family="Times,serif" font-size="14.00">output:</text>
<polyline fill="none" stroke="black" points="248,-332.5 248,-378.5 "/>
<text text-anchor="middle" x="288" y="-363.3" font-family="Times,serif" font-size="14.00">(?, 1, 16)</text>
<polyline fill="none" stroke="black" points="248,-355.5 328,-355.5 "/>
<text text-anchor="middle" x="288" y="-340.3" font-family="Times,serif" font-size="14.00">(?, 16)</text>
</g>
<!-- 140421023956800&#45;&gt;140421023986496 -->
<g id="edge3" class="edge">
<title>140421023956800&#45;&gt;140421023986496</title>
<path fill="none" stroke="black" d="M192,-415.37C192,-407.15 192,-397.66 192,-388.73"/>
<polygon fill="black" stroke="black" points="195.5,-388.61 192,-378.61 188.5,-388.61 195.5,-388.61"/>
</g>
<!-- 140421023987264 -->
<g id="node5" class="node">
<title>140421023987264</title>
<polygon fill="none" stroke="black" points="30,-249.5 30,-295.5 354,-295.5 354,-249.5 30,-249.5"/>
<text text-anchor="middle" x="122.5" y="-268.8" font-family="Times,serif" font-size="14.00">Hidden_Layer_1: Dense</text>
<polyline fill="none" stroke="black" points="215,-249.5 215,-295.5 "/>
<text text-anchor="middle" x="249" y="-280.3" font-family="Times,serif" font-size="14.00">input:</text>
<polyline fill="none" stroke="black" points="215,-272.5 283,-272.5 "/>
<text text-anchor="middle" x="249" y="-257.3" font-family="Times,serif" font-size="14.00">output:</text>
<polyline fill="none" stroke="black" points="283,-249.5 283,-295.5 "/>
<text text-anchor="middle" x="318.5" y="-280.3" font-family="Times,serif" font-size="14.00">(?, 16)</text>
<polyline fill="none" stroke="black" points="283,-272.5 354,-272.5 "/>
<text text-anchor="middle" x="318.5" y="-257.3" font-family="Times,serif" font-size="14.00">(?, 128)</text>
</g>
<!-- 140421023986496&#45;&gt;140421023987264 -->
<g id="edge4" class="edge">
<title>140421023986496&#45;&gt;140421023987264</title>
<path fill="none" stroke="black" d="M192,-332.37C192,-324.15 192,-314.66 192,-305.73"/>
<polygon fill="black" stroke="black" points="195.5,-305.61 192,-295.61 188.5,-305.61 195.5,-305.61"/>
</g>
<!-- 140421023989040 -->
<g id="node6" class="node">
<title>140421023989040</title>
<polygon fill="none" stroke="black" points="30,-166.5 30,-212.5 354,-212.5 354,-166.5 30,-166.5"/>
<text text-anchor="middle" x="122.5" y="-185.8" font-family="Times,serif" font-size="14.00">Hidden_Layer_2: Dense</text>
<polyline fill="none" stroke="black" points="215,-166.5 215,-212.5 "/>
<text text-anchor="middle" x="249" y="-197.3" font-family="Times,serif" font-size="14.00">input:</text>
<polyline fill="none" stroke="black" points="215,-189.5 283,-189.5 "/>
<text text-anchor="middle" x="249" y="-174.3" font-family="Times,serif" font-size="14.00">output:</text>
<polyline fill="none" stroke="black" points="283,-166.5 283,-212.5 "/>
<text text-anchor="middle" x="318.5" y="-197.3" font-family="Times,serif" font-size="14.00">(?, 128)</text>
<polyline fill="none" stroke="black" points="283,-189.5 354,-189.5 "/>
<text text-anchor="middle" x="318.5" y="-174.3" font-family="Times,serif" font-size="14.00">(?, 64)</text>
</g>
<!-- 140421023987264&#45;&gt;140421023989040 -->
<g id="edge5" class="edge">
<title>140421023987264&#45;&gt;140421023989040</title>
<path fill="none" stroke="black" d="M192,-249.37C192,-241.15 192,-231.66 192,-222.73"/>
<polygon fill="black" stroke="black" points="195.5,-222.61 192,-212.61 188.5,-222.61 195.5,-222.61"/>
</g>
<!-- 140421024003264 -->
<g id="node7" class="node">
<title>140421024003264</title>
<polygon fill="none" stroke="black" points="34.5,-83.5 34.5,-129.5 349.5,-129.5 349.5,-83.5 34.5,-83.5"/>
<text text-anchor="middle" x="127" y="-102.8" font-family="Times,serif" font-size="14.00">Hidden_Layer_3: Dense</text>
<polyline fill="none" stroke="black" points="219.5,-83.5 219.5,-129.5 "/>
<text text-anchor="middle" x="253.5" y="-114.3" font-family="Times,serif" font-size="14.00">input:</text>
<polyline fill="none" stroke="black" points="219.5,-106.5 287.5,-106.5 "/>
<text text-anchor="middle" x="253.5" y="-91.3" font-family="Times,serif" font-size="14.00">output:</text>
<polyline fill="none" stroke="black" points="287.5,-83.5 287.5,-129.5 "/>
<text text-anchor="middle" x="318.5" y="-114.3" font-family="Times,serif" font-size="14.00">(?, 64)</text>
<polyline fill="none" stroke="black" points="287.5,-106.5 349.5,-106.5 "/>
<text text-anchor="middle" x="318.5" y="-91.3" font-family="Times,serif" font-size="14.00">(?, 16)</text>
</g>
<!-- 140421023989040&#45;&gt;140421024003264 -->
<g id="edge6" class="edge">
<title>140421023989040&#45;&gt;140421024003264</title>
<path fill="none" stroke="black" d="M192,-166.37C192,-158.15 192,-148.66 192,-139.73"/>
<polygon fill="black" stroke="black" points="195.5,-139.61 192,-129.61 188.5,-139.61 195.5,-139.61"/>
</g>
<!-- 140421024005136 -->
<g id="node8" class="node">
<title>140421024005136</title>
<polygon fill="none" stroke="black" points="71,-0.5 71,-46.5 313,-46.5 313,-0.5 71,-0.5"/>
<text text-anchor="middle" x="127" y="-19.8" font-family="Times,serif" font-size="14.00">dense: Dense</text>
<polyline fill="none" stroke="black" points="183,-0.5 183,-46.5 "/>
<text text-anchor="middle" x="217" y="-31.3" font-family="Times,serif" font-size="14.00">input:</text>
<polyline fill="none" stroke="black" points="183,-23.5 251,-23.5 "/>
<text text-anchor="middle" x="217" y="-8.3" font-family="Times,serif" font-size="14.00">output:</text>
<polyline fill="none" stroke="black" points="251,-0.5 251,-46.5 "/>
<text text-anchor="middle" x="282" y="-31.3" font-family="Times,serif" font-size="14.00">(?, 16)</text>
<polyline fill="none" stroke="black" points="251,-23.5 313,-23.5 "/>
<text text-anchor="middle" x="282" y="-8.3" font-family="Times,serif" font-size="14.00">(?, 14)</text>
</g>
<!-- 140421024003264&#45;&gt;140421024005136 -->
<g id="edge7" class="edge">
<title>140421024003264&#45;&gt;140421024005136</title>
<path fill="none" stroke="black" d="M192,-83.37C192,-75.15 192,-65.66 192,-56.73"/>
<polygon fill="black" stroke="black" points="195.5,-56.61 192,-46.61 188.5,-56.61 195.5,-56.61"/>
</g>
</g>
</svg>
