<?xml version="1.0" encoding="UTF-8" standalone="no"?>
<!DOCTYPE svg PUBLIC "-//W3C//DTD SVG 1.1//EN"
 "http://www.w3.org/Graphics/SVG/1.1/DTD/svg11.dtd">
<!-- Generated by graphviz version 2.43.0 (0)
 -->
<!-- Title: G Pages: 1 -->
<svg width="853pt" height="1278pt"
 viewBox="0.00 0.00 480.00 719.00" xmlns="http://www.w3.org/2000/svg" xmlns:xlink="http://www.w3.org/1999/xlink">
<g id="graph0" class="graph" transform="scale(0.56 0.56) rotate(0) translate(4 715)">
<title>G</title>
<polygon fill="white" stroke="transparent" points="-4,4 -4,-715 476,-715 476,4 -4,4"/>
<!-- 140421022324912 -->
<g id="node1" class="node">
<title>140421022324912</title>
<polygon fill="none" stroke="black" points="0,-664.5 0,-710.5 472,-710.5 472,-664.5 0,-664.5"/>
<text text-anchor="middle" x="148" y="-683.8" font-family="Times,serif" font-size="14.00">zero_padding2d_241_input: InputLayer</text>
<polyline fill="none" stroke="black" points="296,-664.5 296,-710.5 "/>
<text text-anchor="middle" x="330" y="-695.3" font-family="Times,serif" font-size="14.00">input:</text>
<polyline fill="none" stroke="black" points="296,-687.5 364,-687.5 "/>
<text text-anchor="middle" x="330" y="-672.3" font-family="Times,serif" font-size="14.00">output:</text>
<polyline fill="none" stroke="black" points="364,-664.5 364,-710.5 "/>
<text text-anchor="middle" x="418" y="-695.3" font-family="Times,serif" font-size="14.00">[(?, 3, 14, 1)]</text>
<polyline fill="none" stroke="black" points="364,-687.5 472,-687.5 "/>
<text text-anchor="middle" x="418" y="-672.3" font-family="Times,serif" font-size="14.00">[(?, 3, 14, 1)]</text>
</g>
<!-- 140421022229552 -->
<g id="node2" class="node">
<title>140421022229552</title>
<polygon fill="none" stroke="black" points="11,-581.5 11,-627.5 461,-627.5 461,-581.5 11,-581.5"/>
<text text-anchor="middle" x="153" y="-600.8" font-family="Times,serif" font-size="14.00">zero_padding2d_241: ZeroPadding2D</text>
<polyline fill="none" stroke="black" points="295,-581.5 295,-627.5 "/>
<text text-anchor="middle" x="329" y="-612.3" font-family="Times,serif" font-size="14.00">input:</text>
<polyline fill="none" stroke="black" points="295,-604.5 363,-604.5 "/>
<text text-anchor="middle" x="329" y="-589.3" font-family="Times,serif" font-size="14.00">output:</text>
<polyline fill="none" stroke="black" points="363,-581.5 363,-627.5 "/>
<text text-anchor="middle" x="412" y="-612.3" font-family="Times,serif" font-size="14.00">(?, 3, 14, 1)</text>
<polyline fill="none" stroke="black" points="363,-604.5 461,-604.5 "/>
<text text-anchor="middle" x="412" y="-589.3" font-family="Times,serif" font-size="14.00">(?, 7, 18, 1)</text>
</g>
<!-- 140421022324912&#45;&gt;140421022229552 -->
<g id="edge1" class="edge">
<title>140421022324912&#45;&gt;140421022229552</title>
<path fill="none" stroke="black" d="M236,-664.37C236,-656.15 236,-646.66 236,-637.73"/>
<polygon fill="black" stroke="black" points="239.5,-637.61 236,-627.61 232.5,-637.61 239.5,-637.61"/>
</g>
<!-- 140421022230512 -->
<g id="node3" class="node">
<title>140421022230512</title>
<polygon fill="none" stroke="black" points="65,-498.5 65,-544.5 407,-544.5 407,-498.5 65,-498.5"/>
<text text-anchor="middle" x="148.5" y="-517.8" font-family="Times,serif" font-size="14.00">conv2d_241: Conv2D</text>
<polyline fill="none" stroke="black" points="232,-498.5 232,-544.5 "/>
<text text-anchor="middle" x="266" y="-529.3" font-family="Times,serif" font-size="14.00">input:</text>
<polyline fill="none" stroke="black" points="232,-521.5 300,-521.5 "/>
<text text-anchor="middle" x="266" y="-506.3" font-family="Times,serif" font-size="14.00">output:</text>
<polyline fill="none" stroke="black" points="300,-498.5 300,-544.5 "/>
<text text-anchor="middle" x="353.5" y="-529.3" font-family="Times,serif" font-size="14.00">(?, 7, 18, 1)</text>
<polyline fill="none" stroke="black" points="300,-521.5 407,-521.5 "/>
<text text-anchor="middle" x="353.5" y="-506.3" font-family="Times,serif" font-size="14.00">(?, 5, 16, 16)</text>
</g>
<!-- 140421022229552&#45;&gt;140421022230512 -->
<g id="edge2" class="edge">
<title>140421022229552&#45;&gt;140421022230512</title>
<path fill="none" stroke="black" d="M236,-581.37C236,-573.15 236,-563.66 236,-554.73"/>
<polygon fill="black" stroke="black" points="239.5,-554.61 236,-544.61 232.5,-554.61 239.5,-554.61"/>
</g>
<!-- 140421022269648 -->
<g id="node4" class="node">
<title>140421022269648</title>
<polygon fill="none" stroke="black" points="13.5,-415.5 13.5,-461.5 458.5,-461.5 458.5,-415.5 13.5,-415.5"/>
<text text-anchor="middle" x="148.5" y="-434.8" font-family="Times,serif" font-size="14.00">max_pooling2d_241: MaxPooling2D</text>
<polyline fill="none" stroke="black" points="283.5,-415.5 283.5,-461.5 "/>
<text text-anchor="middle" x="317.5" y="-446.3" font-family="Times,serif" font-size="14.00">input:</text>
<polyline fill="none" stroke="black" points="283.5,-438.5 351.5,-438.5 "/>
<text text-anchor="middle" x="317.5" y="-423.3" font-family="Times,serif" font-size="14.00">output:</text>
<polyline fill="none" stroke="black" points="351.5,-415.5 351.5,-461.5 "/>
<text text-anchor="middle" x="405" y="-446.3" font-family="Times,serif" font-size="14.00">(?, 5, 16, 16)</text>
<polyline fill="none" stroke="black" points="351.5,-438.5 458.5,-438.5 "/>
<text text-anchor="middle" x="405" y="-423.3" font-family="Times,serif" font-size="14.00">(?, 2, 8, 16)</text>
</g>
<!-- 140421022230512&#45;&gt;140421022269648 -->
<g id="edge3" class="edge">
<title>140421022230512&#45;&gt;140421022269648</title>
<path fill="none" stroke="black" d="M236,-498.37C236,-490.15 236,-480.66 236,-471.73"/>
<polygon fill="black" stroke="black" points="239.5,-471.61 236,-461.61 232.5,-471.61 239.5,-471.61"/>
</g>
<!-- 140421022270656 -->
<g id="node5" class="node">
<title>140421022270656</title>
<polygon fill="none" stroke="black" points="74,-332.5 74,-378.5 398,-378.5 398,-332.5 74,-332.5"/>
<text text-anchor="middle" x="153" y="-351.8" font-family="Times,serif" font-size="14.00">flatten_241: Flatten</text>
<polyline fill="none" stroke="black" points="232,-332.5 232,-378.5 "/>
<text text-anchor="middle" x="266" y="-363.3" font-family="Times,serif" font-size="14.00">input:</text>
<polyline fill="none" stroke="black" points="232,-355.5 300,-355.5 "/>
<text text-anchor="middle" x="266" y="-340.3" font-family="Times,serif" font-size="14.00">output:</text>
<polyline fill="none" stroke="black" points="300,-332.5 300,-378.5 "/>
<text text-anchor="middle" x="349" y="-363.3" font-family="Times,serif" font-size="14.00">(?, 2, 8, 16)</text>
<polyline fill="none" stroke="black" points="300,-355.5 398,-355.5 "/>
<text text-anchor="middle" x="349" y="-340.3" font-family="Times,serif" font-size="14.00">(?, 256)</text>
</g>
<!-- 140421022269648&#45;&gt;140421022270656 -->
<g id="edge4" class="edge">
<title>140421022269648&#45;&gt;140421022270656</title>
<path fill="none" stroke="black" d="M236,-415.37C236,-407.15 236,-397.66 236,-388.73"/>
<polygon fill="black" stroke="black" points="239.5,-388.61 236,-378.61 232.5,-388.61 239.5,-388.61"/>
</g>
<!-- 140421022271424 -->
<g id="node6" class="node">
<title>140421022271424</title>
<polygon fill="none" stroke="black" points="74,-249.5 74,-295.5 398,-295.5 398,-249.5 74,-249.5"/>
<text text-anchor="middle" x="166.5" y="-268.8" font-family="Times,serif" font-size="14.00">Hidden_Layer_1: Dense</text>
<polyline fill="none" stroke="black" points="259,-249.5 259,-295.5 "/>
<text text-anchor="middle" x="293" y="-280.3" font-family="Times,serif" font-size="14.00">input:</text>
<polyline fill="none" stroke="black" points="259,-272.5 327,-272.5 "/>
<text text-anchor="middle" x="293" y="-257.3" font-family="Times,serif" font-size="14.00">output:</text>
<polyline fill="none" stroke="black" points="327,-249.5 327,-295.5 "/>
<text text-anchor="middle" x="362.5" y="-280.3" font-family="Times,serif" font-size="14.00">(?, 256)</text>
<polyline fill="none" stroke="black" points="327,-272.5 398,-272.5 "/>
<text text-anchor="middle" x="362.5" y="-257.3" font-family="Times,serif" font-size="14.00">(?, 128)</text>
</g>
<!-- 140421022270656&#45;&gt;140421022271424 -->
<g id="edge5" class="edge">
<title>140421022270656&#45;&gt;140421022271424</title>
<path fill="none" stroke="black" d="M236,-332.37C236,-324.15 236,-314.66 236,-305.73"/>
<polygon fill="black" stroke="black" points="239.5,-305.61 236,-295.61 232.5,-305.61 239.5,-305.61"/>
</g>
<!-- 140421022273200 -->
<g id="node7" class="node">
<title>140421022273200</title>
<polygon fill="none" stroke="black" points="74,-166.5 74,-212.5 398,-212.5 398,-166.5 74,-166.5"/>
<text text-anchor="middle" x="166.5" y="-185.8" font-family="Times,serif" font-size="14.00">Hidden_Layer_2: Dense</text>
<polyline fill="none" stroke="black" points="259,-166.5 259,-212.5 "/>
<text text-anchor="middle" x="293" y="-197.3" font-family="Times,serif" font-size="14.00">input:</text>
<polyline fill="none" stroke="black" points="259,-189.5 327,-189.5 "/>
<text text-anchor="middle" x="293" y="-174.3" font-family="Times,serif" font-size="14.00">output:</text>
<polyline fill="none" stroke="black" points="327,-166.5 327,-212.5 "/>
<text text-anchor="middle" x="362.5" y="-197.3" font-family="Times,serif" font-size="14.00">(?, 128)</text>
<polyline fill="none" stroke="black" points="327,-189.5 398,-189.5 "/>
<text text-anchor="middle" x="362.5" y="-174.3" font-family="Times,serif" font-size="14.00">(?, 64)</text>
</g>
<!-- 140421022271424&#45;&gt;140421022273200 -->
<g id="edge6" class="edge">
<title>140421022271424&#45;&gt;140421022273200</title>
<path fill="none" stroke="black" d="M236,-249.37C236,-241.15 236,-231.66 236,-222.73"/>
<polygon fill="black" stroke="black" points="239.5,-222.61 236,-212.61 232.5,-222.61 239.5,-222.61"/>
</g>
<!-- 140421022303808 -->
<g id="node8" class="node">
<title>140421022303808</title>
<polygon fill="none" stroke="black" points="78.5,-83.5 78.5,-129.5 393.5,-129.5 393.5,-83.5 78.5,-83.5"/>
<text text-anchor="middle" x="171" y="-102.8" font-family="Times,serif" font-size="14.00">Hidden_Layer_3: Dense</text>
<polyline fill="none" stroke="black" points="263.5,-83.5 263.5,-129.5 "/>
<text text-anchor="middle" x="297.5" y="-114.3" font-family="Times,serif" font-size="14.00">input:</text>
<polyline fill="none" stroke="black" points="263.5,-106.5 331.5,-106.5 "/>
<text text-anchor="middle" x="297.5" y="-91.3" font-family="Times,serif" font-size="14.00">output:</text>
<polyline fill="none" stroke="black" points="331.5,-83.5 331.5,-129.5 "/>
<text text-anchor="middle" x="362.5" y="-114.3" font-family="Times,serif" font-size="14.00">(?, 64)</text>
<polyline fill="none" stroke="black" points="331.5,-106.5 393.5,-106.5 "/>
<text text-anchor="middle" x="362.5" y="-91.3" font-family="Times,serif" font-size="14.00">(?, 16)</text>
</g>
<!-- 140421022273200&#45;&gt;140421022303808 -->
<g id="edge7" class="edge">
<title>140421022273200&#45;&gt;140421022303808</title>
<path fill="none" stroke="black" d="M236,-166.37C236,-158.15 236,-148.66 236,-139.73"/>
<polygon fill="black" stroke="black" points="239.5,-139.61 236,-129.61 232.5,-139.61 239.5,-139.61"/>
</g>
<!-- 140421022305680 -->
<g id="node9" class="node">
<title>140421022305680</title>
<polygon fill="none" stroke="black" points="98,-0.5 98,-46.5 374,-46.5 374,-0.5 98,-0.5"/>
<text text-anchor="middle" x="171" y="-19.8" font-family="Times,serif" font-size="14.00">dense_241: Dense</text>
<polyline fill="none" stroke="black" points="244,-0.5 244,-46.5 "/>
<text text-anchor="middle" x="278" y="-31.3" font-family="Times,serif" font-size="14.00">input:</text>
<polyline fill="none" stroke="black" points="244,-23.5 312,-23.5 "/>
<text text-anchor="middle" x="278" y="-8.3" font-family="Times,serif" font-size="14.00">output:</text>
<polyline fill="none" stroke="black" points="312,-0.5 312,-46.5 "/>
<text text-anchor="middle" x="343" y="-31.3" font-family="Times,serif" font-size="14.00">(?, 16)</text>
<polyline fill="none" stroke="black" points="312,-23.5 374,-23.5 "/>
<text text-anchor="middle" x="343" y="-8.3" font-family="Times,serif" font-size="14.00">(?, 14)</text>
</g>
<!-- 140421022303808&#45;&gt;140421022305680 -->
<g id="edge8" class="edge">
<title>140421022303808&#45;&gt;140421022305680</title>
<path fill="none" stroke="black" d="M236,-83.37C236,-75.15 236,-65.66 236,-56.73"/>
<polygon fill="black" stroke="black" points="239.5,-56.61 236,-46.61 232.5,-56.61 239.5,-56.61"/>
</g>
</g>
</svg>
