<?xml version="1.0" encoding="UTF-8" standalone="no"?>
<!DOCTYPE svg PUBLIC "-//W3C//DTD SVG 1.1//EN"
 "http://www.w3.org/Graphics/SVG/1.1/DTD/svg11.dtd">
<!-- Generated by graphviz version 2.43.0 (0)
 -->
<!-- Title: G Pages: 1 -->
<svg width="658pt" height="836pt"
 viewBox="0.00 0.00 370.00 470.00" xmlns="http://www.w3.org/2000/svg" xmlns:xlink="http://www.w3.org/1999/xlink">
<g id="graph0" class="graph" transform="scale(0.56 0.56) rotate(0) translate(4 466)">
<title>G</title>
<polygon fill="white" stroke="transparent" points="-4,4 -4,-466 366,-466 366,4 -4,4"/>
<!-- 140421012630256 -->
<g id="node1" class="node">
<title>140421012630256</title>
<polygon fill="none" stroke="black" points="0,-415.5 0,-461.5 362,-461.5 362,-415.5 0,-415.5"/>
<text text-anchor="middle" x="97.5" y="-434.8" font-family="Times,serif" font-size="14.00">flatten_input: InputLayer</text>
<polyline fill="none" stroke="black" points="195,-415.5 195,-461.5 "/>
<text text-anchor="middle" x="229" y="-446.3" font-family="Times,serif" font-size="14.00">input:</text>
<polyline fill="none" stroke="black" points="195,-438.5 263,-438.5 "/>
<text text-anchor="middle" x="229" y="-423.3" font-family="Times,serif" font-size="14.00">output:</text>
<polyline fill="none" stroke="black" points="263,-415.5 263,-461.5 "/>
<text text-anchor="middle" x="312.5" y="-446.3" font-family="Times,serif" font-size="14.00">[(?, 3, 224)]</text>
<polyline fill="none" stroke="black" points="263,-438.5 362,-438.5 "/>
<text text-anchor="middle" x="312.5" y="-423.3" font-family="Times,serif" font-size="14.00">[(?, 3, 224)]</text>
</g>
<!-- 140421012555040 -->
<g id="node2" class="node">
<title>140421012555040</title>
<polygon fill="none" stroke="black" points="40.5,-332.5 40.5,-378.5 321.5,-378.5 321.5,-332.5 40.5,-332.5"/>
<text text-anchor="middle" x="102.5" y="-351.8" font-family="Times,serif" font-size="14.00">flatten: Flatten</text>
<polyline fill="none" stroke="black" points="164.5,-332.5 164.5,-378.5 "/>
<text text-anchor="middle" x="198.5" y="-363.3" font-family="Times,serif" font-size="14.00">input:</text>
<polyline fill="none" stroke="black" points="164.5,-355.5 232.5,-355.5 "/>
<text text-anchor="middle" x="198.5" y="-340.3" font-family="Times,serif" font-size="14.00">output:</text>
<polyline fill="none" stroke="black" points="232.5,-332.5 232.5,-378.5 "/>
<text text-anchor="middle" x="277" y="-363.3" font-family="Times,serif" font-size="14.00">(?, 3, 224)</text>
<polyline fill="none" stroke="black" points="232.5,-355.5 321.5,-355.5 "/>
<text text-anchor="middle" x="277" y="-340.3" font-family="Times,serif" font-size="14.00">(?, 672)</text>
</g>
<!-- 140421012630256&#45;&gt;140421012555040 -->
<g id="edge1" class="edge">
<title>140421012630256&#45;&gt;140421012555040</title>
<path fill="none" stroke="black" d="M181,-415.37C181,-407.15 181,-397.66 181,-388.73"/>
<polygon fill="black" stroke="black" points="184.5,-388.61 181,-378.61 177.5,-388.61 184.5,-388.61"/>
</g>
<!-- 140421012556288 -->
<g id="node3" class="node">
<title>140421012556288</title>
<polygon fill="none" stroke="black" points="19,-249.5 19,-295.5 343,-295.5 343,-249.5 19,-249.5"/>
<text text-anchor="middle" x="111.5" y="-268.8" font-family="Times,serif" font-size="14.00">Hidden_Layer_1: Dense</text>
<polyline fill="none" stroke="black" points="204,-249.5 204,-295.5 "/>
<text text-anchor="middle" x="238" y="-280.3" font-family="Times,serif" font-size="14.00">input:</text>
<polyline fill="none" stroke="black" points="204,-272.5 272,-272.5 "/>
<text text-anchor="middle" x="238" y="-257.3" font-family="Times,serif" font-size="14.00">output:</text>
<polyline fill="none" stroke="black" points="272,-249.5 272,-295.5 "/>
<text text-anchor="middle" x="307.5" y="-280.3" font-family="Times,serif" font-size="14.00">(?, 672)</text>
<polyline fill="none" stroke="black" points="272,-272.5 343,-272.5 "/>
<text text-anchor="middle" x="307.5" y="-257.3" font-family="Times,serif" font-size="14.00">(?, 128)</text>
</g>
<!-- 140421012555040&#45;&gt;140421012556288 -->
<g id="edge2" class="edge">
<title>140421012555040&#45;&gt;140421012556288</title>
<path fill="none" stroke="black" d="M181,-332.37C181,-324.15 181,-314.66 181,-305.73"/>
<polygon fill="black" stroke="black" points="184.5,-305.61 181,-295.61 177.5,-305.61 184.5,-305.61"/>
</g>
<!-- 140421012603184 -->
<g id="node4" class="node">
<title>140421012603184</title>
<polygon fill="none" stroke="black" points="19,-166.5 19,-212.5 343,-212.5 343,-166.5 19,-166.5"/>
<text text-anchor="middle" x="111.5" y="-185.8" font-family="Times,serif" font-size="14.00">Hidden_Layer_2: Dense</text>
<polyline fill="none" stroke="black" points="204,-166.5 204,-212.5 "/>
<text text-anchor="middle" x="238" y="-197.3" font-family="Times,serif" font-size="14.00">input:</text>
<polyline fill="none" stroke="black" points="204,-189.5 272,-189.5 "/>
<text text-anchor="middle" x="238" y="-174.3" font-family="Times,serif" font-size="14.00">output:</text>
<polyline fill="none" stroke="black" points="272,-166.5 272,-212.5 "/>
<text text-anchor="middle" x="307.5" y="-197.3" font-family="Times,serif" font-size="14.00">(?, 128)</text>
<polyline fill="none" stroke="black" points="272,-189.5 343,-189.5 "/>
<text text-anchor="middle" x="307.5" y="-174.3" font-family="Times,serif" font-size="14.00">(?, 64)</text>
</g>
<!-- 140421012556288&#45;&gt;140421012603184 -->
<g id="edge3" class="edge">
<title>140421012556288&#45;&gt;140421012603184</title>
<path fill="none" stroke="black" d="M181,-249.37C181,-241.15 181,-231.66 181,-222.73"/>
<polygon fill="black" stroke="black" points="184.5,-222.61 181,-212.61 177.5,-222.61 184.5,-222.61"/>
</g>
<!-- 140421012605056 -->
<g id="node5" class="node">
<title>140421012605056</title>
<polygon fill="none" stroke="black" points="23.5,-83.5 23.5,-129.5 338.5,-129.5 338.5,-83.5 23.5,-83.5"/>
<text text-anchor="middle" x="116" y="-102.8" font-family="Times,serif" font-size="14.00">Hidden_Layer_3: Dense</text>
<polyline fill="none" stroke="black" points="208.5,-83.5 208.5,-129.5 "/>
<text text-anchor="middle" x="242.5" y="-114.3" font-family="Times,serif" font-size="14.00">input:</text>
<polyline fill="none" stroke="black" points="208.5,-106.5 276.5,-106.5 "/>
<text text-anchor="middle" x="242.5" y="-91.3" font-family="Times,serif" font-size="14.00">output:</text>
<polyline fill="none" stroke="black" points="276.5,-83.5 276.5,-129.5 "/>
<text text-anchor="middle" x="307.5" y="-114.3" font-family="Times,serif" font-size="14.00">(?, 64)</text>
<polyline fill="none" stroke="black" points="276.5,-106.5 338.5,-106.5 "/>
<text text-anchor="middle" x="307.5" y="-91.3" font-family="Times,serif" font-size="14.00">(?, 16)</text>
</g>
<!-- 140421012603184&#45;&gt;140421012605056 -->
<g id="edge4" class="edge">
<title>140421012603184&#45;&gt;140421012605056</title>
<path fill="none" stroke="black" d="M181,-166.37C181,-158.15 181,-148.66 181,-139.73"/>
<polygon fill="black" stroke="black" points="184.5,-139.61 181,-129.61 177.5,-139.61 184.5,-139.61"/>
</g>
<!-- 140421012606928 -->
<g id="node6" class="node">
<title>140421012606928</title>
<polygon fill="none" stroke="black" points="57.5,-0.5 57.5,-46.5 304.5,-46.5 304.5,-0.5 57.5,-0.5"/>
<text text-anchor="middle" x="116" y="-19.8" font-family="Times,serif" font-size="14.00">output: Dense</text>
<polyline fill="none" stroke="black" points="174.5,-0.5 174.5,-46.5 "/>
<text text-anchor="middle" x="208.5" y="-31.3" font-family="Times,serif" font-size="14.00">input:</text>
<polyline fill="none" stroke="black" points="174.5,-23.5 242.5,-23.5 "/>
<text text-anchor="middle" x="208.5" y="-8.3" font-family="Times,serif" font-size="14.00">output:</text>
<polyline fill="none" stroke="black" points="242.5,-0.5 242.5,-46.5 "/>
<text text-anchor="middle" x="273.5" y="-31.3" font-family="Times,serif" font-size="14.00">(?, 16)</text>
<polyline fill="none" stroke="black" points="242.5,-23.5 304.5,-23.5 "/>
<text text-anchor="middle" x="273.5" y="-8.3" font-family="Times,serif" font-size="14.00">(?, 14)</text>
</g>
<!-- 140421012605056&#45;&gt;140421012606928 -->
<g id="edge5" class="edge">
<title>140421012605056&#45;&gt;140421012606928</title>
<path fill="none" stroke="black" d="M181,-83.37C181,-75.15 181,-65.66 181,-56.73"/>
<polygon fill="black" stroke="black" points="184.5,-56.61 181,-46.61 177.5,-56.61 184.5,-56.61"/>
</g>
</g>
</svg>
