<?xml version="1.0" encoding="UTF-8" standalone="no"?>
<!DOCTYPE svg PUBLIC "-//W3C//DTD SVG 1.1//EN"
 "http://www.w3.org/Graphics/SVG/1.1/DTD/svg11.dtd">
<!-- Generated by graphviz version 2.43.0 (0)
 -->
<!-- Title: G Pages: 1 -->
<svg width="619pt" height="983pt"
 viewBox="0.00 0.00 348.00 553.00" xmlns="http://www.w3.org/2000/svg" xmlns:xlink="http://www.w3.org/1999/xlink">
<g id="graph0" class="graph" transform="scale(0.56 0.56) rotate(0) translate(4 549)">
<title>G</title>
<polygon fill="white" stroke="transparent" points="-4,4 -4,-549 344,-549 344,4 -4,4"/>
<!-- 140421030930560 -->
<g id="node1" class="node">
<title>140421030930560</title>
<polygon fill="none" stroke="black" points="0,-498.5 0,-544.5 340,-544.5 340,-498.5 0,-498.5"/>
<text text-anchor="middle" x="91" y="-517.8" font-family="Times,serif" font-size="14.00">gru1_input: InputLayer</text>
<polyline fill="none" stroke="black" points="182,-498.5 182,-544.5 "/>
<text text-anchor="middle" x="216" y="-529.3" font-family="Times,serif" font-size="14.00">input:</text>
<polyline fill="none" stroke="black" points="182,-521.5 250,-521.5 "/>
<text text-anchor="middle" x="216" y="-506.3" font-family="Times,serif" font-size="14.00">output:</text>
<polyline fill="none" stroke="black" points="250,-498.5 250,-544.5 "/>
<text text-anchor="middle" x="295" y="-529.3" font-family="Times,serif" font-size="14.00">[(?, 3, 14)]</text>
<polyline fill="none" stroke="black" points="250,-521.5 340,-521.5 "/>
<text text-anchor="middle" x="295" y="-506.3" font-family="Times,serif" font-size="14.00">[(?, 3, 14)]</text>
</g>
<!-- 140421030815776 -->
<g id="node2" class="node">
<title>140421030815776</title>
<polygon fill="none" stroke="black" points="45,-415.5 45,-461.5 295,-461.5 295,-415.5 45,-415.5"/>
<text text-anchor="middle" x="91.5" y="-434.8" font-family="Times,serif" font-size="14.00">gru1: GRU</text>
<polyline fill="none" stroke="black" points="138,-415.5 138,-461.5 "/>
<text text-anchor="middle" x="172" y="-446.3" font-family="Times,serif" font-size="14.00">input:</text>
<polyline fill="none" stroke="black" points="138,-438.5 206,-438.5 "/>
<text text-anchor="middle" x="172" y="-423.3" font-family="Times,serif" font-size="14.00">output:</text>
<polyline fill="none" stroke="black" points="206,-415.5 206,-461.5 "/>
<text text-anchor="middle" x="250.5" y="-446.3" font-family="Times,serif" font-size="14.00">(?, 3, 14)</text>
<polyline fill="none" stroke="black" points="206,-438.5 295,-438.5 "/>
<text text-anchor="middle" x="250.5" y="-423.3" font-family="Times,serif" font-size="14.00">(?, 3, 200)</text>
</g>
<!-- 140421030930560&#45;&gt;140421030815776 -->
<g id="edge1" class="edge">
<title>140421030930560&#45;&gt;140421030815776</title>
<path fill="none" stroke="black" d="M170,-498.37C170,-490.15 170,-480.66 170,-471.73"/>
<polygon fill="black" stroke="black" points="173.5,-471.61 170,-461.61 166.5,-471.61 173.5,-471.61"/>
</g>
<!-- 140421030868976 -->
<g id="node3" class="node">
<title>140421030868976</title>
<polygon fill="none" stroke="black" points="45,-332.5 45,-378.5 295,-378.5 295,-332.5 45,-332.5"/>
<text text-anchor="middle" x="91.5" y="-351.8" font-family="Times,serif" font-size="14.00">gru2: GRU</text>
<polyline fill="none" stroke="black" points="138,-332.5 138,-378.5 "/>
<text text-anchor="middle" x="172" y="-363.3" font-family="Times,serif" font-size="14.00">input:</text>
<polyline fill="none" stroke="black" points="138,-355.5 206,-355.5 "/>
<text text-anchor="middle" x="172" y="-340.3" font-family="Times,serif" font-size="14.00">output:</text>
<polyline fill="none" stroke="black" points="206,-332.5 206,-378.5 "/>
<text text-anchor="middle" x="250.5" y="-363.3" font-family="Times,serif" font-size="14.00">(?, 3, 200)</text>
<polyline fill="none" stroke="black" points="206,-355.5 295,-355.5 "/>
<text text-anchor="middle" x="250.5" y="-340.3" font-family="Times,serif" font-size="14.00">(?, 128)</text>
</g>
<!-- 140421030815776&#45;&gt;140421030868976 -->
<g id="edge2" class="edge">
<title>140421030815776&#45;&gt;140421030868976</title>
<path fill="none" stroke="black" d="M170,-415.37C170,-407.15 170,-397.66 170,-388.73"/>
<polygon fill="black" stroke="black" points="173.5,-388.61 170,-378.61 166.5,-388.61 173.5,-388.61"/>
</g>
<!-- 140421030881168 -->
<g id="node4" class="node">
<title>140421030881168</title>
<polygon fill="none" stroke="black" points="8,-249.5 8,-295.5 332,-295.5 332,-249.5 8,-249.5"/>
<text text-anchor="middle" x="100.5" y="-268.8" font-family="Times,serif" font-size="14.00">Hidden_Layer_1: Dense</text>
<polyline fill="none" stroke="black" points="193,-249.5 193,-295.5 "/>
<text text-anchor="middle" x="227" y="-280.3" font-family="Times,serif" font-size="14.00">input:</text>
<polyline fill="none" stroke="black" points="193,-272.5 261,-272.5 "/>
<text text-anchor="middle" x="227" y="-257.3" font-family="Times,serif" font-size="14.00">output:</text>
<polyline fill="none" stroke="black" points="261,-249.5 261,-295.5 "/>
<text text-anchor="middle" x="296.5" y="-280.3" font-family="Times,serif" font-size="14.00">(?, 128)</text>
<polyline fill="none" stroke="black" points="261,-272.5 332,-272.5 "/>
<text text-anchor="middle" x="296.5" y="-257.3" font-family="Times,serif" font-size="14.00">(?, 128)</text>
</g>
<!-- 140421030868976&#45;&gt;140421030881168 -->
<g id="edge3" class="edge">
<title>140421030868976&#45;&gt;140421030881168</title>
<path fill="none" stroke="black" d="M170,-332.37C170,-324.15 170,-314.66 170,-305.73"/>
<polygon fill="black" stroke="black" points="173.5,-305.61 170,-295.61 166.5,-305.61 173.5,-305.61"/>
</g>
<!-- 140421030882944 -->
<g id="node5" class="node">
<title>140421030882944</title>
<polygon fill="none" stroke="black" points="8,-166.5 8,-212.5 332,-212.5 332,-166.5 8,-166.5"/>
<text text-anchor="middle" x="100.5" y="-185.8" font-family="Times,serif" font-size="14.00">Hidden_Layer_2: Dense</text>
<polyline fill="none" stroke="black" points="193,-166.5 193,-212.5 "/>
<text text-anchor="middle" x="227" y="-197.3" font-family="Times,serif" font-size="14.00">input:</text>
<polyline fill="none" stroke="black" points="193,-189.5 261,-189.5 "/>
<text text-anchor="middle" x="227" y="-174.3" font-family="Times,serif" font-size="14.00">output:</text>
<polyline fill="none" stroke="black" points="261,-166.5 261,-212.5 "/>
<text text-anchor="middle" x="296.5" y="-197.3" font-family="Times,serif" font-size="14.00">(?, 128)</text>
<polyline fill="none" stroke="black" points="261,-189.5 332,-189.5 "/>
<text text-anchor="middle" x="296.5" y="-174.3" font-family="Times,serif" font-size="14.00">(?, 64)</text>
</g>
<!-- 140421030881168&#45;&gt;140421030882944 -->
<g id="edge4" class="edge">
<title>140421030881168&#45;&gt;140421030882944</title>
<path fill="none" stroke="black" d="M170,-249.37C170,-241.15 170,-231.66 170,-222.73"/>
<polygon fill="black" stroke="black" points="173.5,-222.61 170,-212.61 166.5,-222.61 173.5,-222.61"/>
</g>
<!-- 140421030897168 -->
<g id="node6" class="node">
<title>140421030897168</title>
<polygon fill="none" stroke="black" points="12.5,-83.5 12.5,-129.5 327.5,-129.5 327.5,-83.5 12.5,-83.5"/>
<text text-anchor="middle" x="105" y="-102.8" font-family="Times,serif" font-size="14.00">Hidden_Layer_3: Dense</text>
<polyline fill="none" stroke="black" points="197.5,-83.5 197.5,-129.5 "/>
<text text-anchor="middle" x="231.5" y="-114.3" font-family="Times,serif" font-size="14.00">input:</text>
<polyline fill="none" stroke="black" points="197.5,-106.5 265.5,-106.5 "/>
<text text-anchor="middle" x="231.5" y="-91.3" font-family="Times,serif" font-size="14.00">output:</text>
<polyline fill="none" stroke="black" points="265.5,-83.5 265.5,-129.5 "/>
<text text-anchor="middle" x="296.5" y="-114.3" font-family="Times,serif" font-size="14.00">(?, 64)</text>
<polyline fill="none" stroke="black" points="265.5,-106.5 327.5,-106.5 "/>
<text text-anchor="middle" x="296.5" y="-91.3" font-family="Times,serif" font-size="14.00">(?, 16)</text>
</g>
<!-- 140421030882944&#45;&gt;140421030897168 -->
<g id="edge5" class="edge">
<title>140421030882944&#45;&gt;140421030897168</title>
<path fill="none" stroke="black" d="M170,-166.37C170,-158.15 170,-148.66 170,-139.73"/>
<polygon fill="black" stroke="black" points="173.5,-139.61 170,-129.61 166.5,-139.61 173.5,-139.61"/>
</g>
<!-- 140421030899040 -->
<g id="node7" class="node">
<title>140421030899040</title>
<polygon fill="none" stroke="black" points="46.5,-0.5 46.5,-46.5 293.5,-46.5 293.5,-0.5 46.5,-0.5"/>
<text text-anchor="middle" x="105" y="-19.8" font-family="Times,serif" font-size="14.00">output: Dense</text>
<polyline fill="none" stroke="black" points="163.5,-0.5 163.5,-46.5 "/>
<text text-anchor="middle" x="197.5" y="-31.3" font-family="Times,serif" font-size="14.00">input:</text>
<polyline fill="none" stroke="black" points="163.5,-23.5 231.5,-23.5 "/>
<text text-anchor="middle" x="197.5" y="-8.3" font-family="Times,serif" font-size="14.00">output:</text>
<polyline fill="none" stroke="black" points="231.5,-0.5 231.5,-46.5 "/>
<text text-anchor="middle" x="262.5" y="-31.3" font-family="Times,serif" font-size="14.00">(?, 16)</text>
<polyline fill="none" stroke="black" points="231.5,-23.5 293.5,-23.5 "/>
<text text-anchor="middle" x="262.5" y="-8.3" font-family="Times,serif" font-size="14.00">(?, 14)</text>
</g>
<!-- 140421030897168&#45;&gt;140421030899040 -->
<g id="edge6" class="edge">
<title>140421030897168&#45;&gt;140421030899040</title>
<path fill="none" stroke="black" d="M170,-83.37C170,-75.15 170,-65.66 170,-56.73"/>
<polygon fill="black" stroke="black" points="173.5,-56.61 170,-46.61 166.5,-56.61 173.5,-56.61"/>
</g>
</g>
</svg>
