<?xml version="1.0" encoding="UTF-8" standalone="no"?>
<!DOCTYPE svg PUBLIC "-//W3C//DTD SVG 1.1//EN"
 "http://www.w3.org/Graphics/SVG/1.1/DTD/svg11.dtd">
<!-- Generated by graphviz version 2.43.0 (0)
 -->
<!-- Title: G Pages: 1 -->
<svg width="692pt" height="1278pt"
 viewBox="0.00 0.00 389.00 719.00" xmlns="http://www.w3.org/2000/svg" xmlns:xlink="http://www.w3.org/1999/xlink">
<g id="graph0" class="graph" transform="scale(0.56 0.56) rotate(0) translate(4 715)">
<title>G</title>
<polygon fill="white" stroke="transparent" points="-4,4 -4,-715 385,-715 385,4 -4,4"/>
<!-- 140421813829248 -->
<g id="node1" class="node">
<title>140421813829248</title>
<polygon fill="none" stroke="black" points="0,-664.5 0,-710.5 381,-710.5 381,-664.5 0,-664.5"/>
<text text-anchor="middle" x="111.5" y="-683.8" font-family="Times,serif" font-size="14.00">lstm_2162_input: InputLayer</text>
<polyline fill="none" stroke="black" points="223,-664.5 223,-710.5 "/>
<text text-anchor="middle" x="257" y="-695.3" font-family="Times,serif" font-size="14.00">input:</text>
<polyline fill="none" stroke="black" points="223,-687.5 291,-687.5 "/>
<text text-anchor="middle" x="257" y="-672.3" font-family="Times,serif" font-size="14.00">output:</text>
<polyline fill="none" stroke="black" points="291,-664.5 291,-710.5 "/>
<text text-anchor="middle" x="336" y="-695.3" font-family="Times,serif" font-size="14.00">[(?, 3, 14)]</text>
<polyline fill="none" stroke="black" points="291,-687.5 381,-687.5 "/>
<text text-anchor="middle" x="336" y="-672.3" font-family="Times,serif" font-size="14.00">[(?, 3, 14)]</text>
</g>
<!-- 140421814166816 -->
<g id="node2" class="node">
<title>140421814166816</title>
<polygon fill="none" stroke="black" points="41,-581.5 41,-627.5 340,-627.5 340,-581.5 41,-581.5"/>
<text text-anchor="middle" x="112" y="-600.8" font-family="Times,serif" font-size="14.00">lstm_2162: LSTM</text>
<polyline fill="none" stroke="black" points="183,-581.5 183,-627.5 "/>
<text text-anchor="middle" x="217" y="-612.3" font-family="Times,serif" font-size="14.00">input:</text>
<polyline fill="none" stroke="black" points="183,-604.5 251,-604.5 "/>
<text text-anchor="middle" x="217" y="-589.3" font-family="Times,serif" font-size="14.00">output:</text>
<polyline fill="none" stroke="black" points="251,-581.5 251,-627.5 "/>
<text text-anchor="middle" x="295.5" y="-612.3" font-family="Times,serif" font-size="14.00">(?, 3, 14)</text>
<polyline fill="none" stroke="black" points="251,-604.5 340,-604.5 "/>
<text text-anchor="middle" x="295.5" y="-589.3" font-family="Times,serif" font-size="14.00">(?, 3, 250)</text>
</g>
<!-- 140421813829248&#45;&gt;140421814166816 -->
<g id="edge1" class="edge">
<title>140421813829248&#45;&gt;140421814166816</title>
<path fill="none" stroke="black" d="M190.5,-664.37C190.5,-656.15 190.5,-646.66 190.5,-637.73"/>
<polygon fill="black" stroke="black" points="194,-637.61 190.5,-627.61 187,-637.61 194,-637.61"/>
</g>
<!-- 140421813740400 -->
<g id="node3" class="node">
<title>140421813740400</title>
<polygon fill="none" stroke="black" points="20.5,-498.5 20.5,-544.5 360.5,-544.5 360.5,-498.5 20.5,-498.5"/>
<text text-anchor="middle" x="112" y="-517.8" font-family="Times,serif" font-size="14.00">dropout_2162: Dropout</text>
<polyline fill="none" stroke="black" points="203.5,-498.5 203.5,-544.5 "/>
<text text-anchor="middle" x="237.5" y="-529.3" font-family="Times,serif" font-size="14.00">input:</text>
<polyline fill="none" stroke="black" points="203.5,-521.5 271.5,-521.5 "/>
<text text-anchor="middle" x="237.5" y="-506.3" font-family="Times,serif" font-size="14.00">output:</text>
<polyline fill="none" stroke="black" points="271.5,-498.5 271.5,-544.5 "/>
<text text-anchor="middle" x="316" y="-529.3" font-family="Times,serif" font-size="14.00">(?, 3, 250)</text>
<polyline fill="none" stroke="black" points="271.5,-521.5 360.5,-521.5 "/>
<text text-anchor="middle" x="316" y="-506.3" font-family="Times,serif" font-size="14.00">(?, 3, 250)</text>
</g>
<!-- 140421814166816&#45;&gt;140421813740400 -->
<g id="edge2" class="edge">
<title>140421814166816&#45;&gt;140421813740400</title>
<path fill="none" stroke="black" d="M190.5,-581.37C190.5,-573.15 190.5,-563.66 190.5,-554.73"/>
<polygon fill="black" stroke="black" points="194,-554.61 190.5,-544.61 187,-554.61 194,-554.61"/>
</g>
<!-- 140421813741552 -->
<g id="node4" class="node">
<title>140421813741552</title>
<polygon fill="none" stroke="black" points="41,-415.5 41,-461.5 340,-461.5 340,-415.5 41,-415.5"/>
<text text-anchor="middle" x="112" y="-434.8" font-family="Times,serif" font-size="14.00">lstm_2163: LSTM</text>
<polyline fill="none" stroke="black" points="183,-415.5 183,-461.5 "/>
<text text-anchor="middle" x="217" y="-446.3" font-family="Times,serif" font-size="14.00">input:</text>
<polyline fill="none" stroke="black" points="183,-438.5 251,-438.5 "/>
<text text-anchor="middle" x="217" y="-423.3" font-family="Times,serif" font-size="14.00">output:</text>
<polyline fill="none" stroke="black" points="251,-415.5 251,-461.5 "/>
<text text-anchor="middle" x="295.5" y="-446.3" font-family="Times,serif" font-size="14.00">(?, 3, 250)</text>
<polyline fill="none" stroke="black" points="251,-438.5 340,-438.5 "/>
<text text-anchor="middle" x="295.5" y="-423.3" font-family="Times,serif" font-size="14.00">(?, 250)</text>
</g>
<!-- 140421813740400&#45;&gt;140421813741552 -->
<g id="edge3" class="edge">
<title>140421813740400&#45;&gt;140421813741552</title>
<path fill="none" stroke="black" d="M190.5,-498.37C190.5,-490.15 190.5,-480.66 190.5,-471.73"/>
<polygon fill="black" stroke="black" points="194,-471.61 190.5,-461.61 187,-471.61 194,-471.61"/>
</g>
<!-- 140421813774176 -->
<g id="node5" class="node">
<title>140421813774176</title>
<polygon fill="none" stroke="black" points="29.5,-332.5 29.5,-378.5 351.5,-378.5 351.5,-332.5 29.5,-332.5"/>
<text text-anchor="middle" x="121" y="-351.8" font-family="Times,serif" font-size="14.00">dropout_2163: Dropout</text>
<polyline fill="none" stroke="black" points="212.5,-332.5 212.5,-378.5 "/>
<text text-anchor="middle" x="246.5" y="-363.3" font-family="Times,serif" font-size="14.00">input:</text>
<polyline fill="none" stroke="black" points="212.5,-355.5 280.5,-355.5 "/>
<text text-anchor="middle" x="246.5" y="-340.3" font-family="Times,serif" font-size="14.00">output:</text>
<polyline fill="none" stroke="black" points="280.5,-332.5 280.5,-378.5 "/>
<text text-anchor="middle" x="316" y="-363.3" font-family="Times,serif" font-size="14.00">(?, 250)</text>
<polyline fill="none" stroke="black" points="280.5,-355.5 351.5,-355.5 "/>
<text text-anchor="middle" x="316" y="-340.3" font-family="Times,serif" font-size="14.00">(?, 250)</text>
</g>
<!-- 140421813741552&#45;&gt;140421813774176 -->
<g id="edge4" class="edge">
<title>140421813741552&#45;&gt;140421813774176</title>
<path fill="none" stroke="black" d="M190.5,-415.37C190.5,-407.15 190.5,-397.66 190.5,-388.73"/>
<polygon fill="black" stroke="black" points="194,-388.61 190.5,-378.61 187,-388.61 194,-388.61"/>
</g>
<!-- 140421813775280 -->
<g id="node6" class="node">
<title>140421813775280</title>
<polygon fill="none" stroke="black" points="28.5,-249.5 28.5,-295.5 352.5,-295.5 352.5,-249.5 28.5,-249.5"/>
<text text-anchor="middle" x="121" y="-268.8" font-family="Times,serif" font-size="14.00">Hidden_Layer_1: Dense</text>
<polyline fill="none" stroke="black" points="213.5,-249.5 213.5,-295.5 "/>
<text text-anchor="middle" x="247.5" y="-280.3" font-family="Times,serif" font-size="14.00">input:</text>
<polyline fill="none" stroke="black" points="213.5,-272.5 281.5,-272.5 "/>
<text text-anchor="middle" x="247.5" y="-257.3" font-family="Times,serif" font-size="14.00">output:</text>
<polyline fill="none" stroke="black" points="281.5,-249.5 281.5,-295.5 "/>
<text text-anchor="middle" x="317" y="-280.3" font-family="Times,serif" font-size="14.00">(?, 250)</text>
<polyline fill="none" stroke="black" points="281.5,-272.5 352.5,-272.5 "/>
<text text-anchor="middle" x="317" y="-257.3" font-family="Times,serif" font-size="14.00">(?, 128)</text>
</g>
<!-- 140421813774176&#45;&gt;140421813775280 -->
<g id="edge5" class="edge">
<title>140421813774176&#45;&gt;140421813775280</title>
<path fill="none" stroke="black" d="M190.5,-332.37C190.5,-324.15 190.5,-314.66 190.5,-305.73"/>
<polygon fill="black" stroke="black" points="194,-305.61 190.5,-295.61 187,-305.61 194,-305.61"/>
</g>
<!-- 140421813801888 -->
<g id="node7" class="node">
<title>140421813801888</title>
<polygon fill="none" stroke="black" points="28.5,-166.5 28.5,-212.5 352.5,-212.5 352.5,-166.5 28.5,-166.5"/>
<text text-anchor="middle" x="121" y="-185.8" font-family="Times,serif" font-size="14.00">Hidden_Layer_2: Dense</text>
<polyline fill="none" stroke="black" points="213.5,-166.5 213.5,-212.5 "/>
<text text-anchor="middle" x="247.5" y="-197.3" font-family="Times,serif" font-size="14.00">input:</text>
<polyline fill="none" stroke="black" points="213.5,-189.5 281.5,-189.5 "/>
<text text-anchor="middle" x="247.5" y="-174.3" font-family="Times,serif" font-size="14.00">output:</text>
<polyline fill="none" stroke="black" points="281.5,-166.5 281.5,-212.5 "/>
<text text-anchor="middle" x="317" y="-197.3" font-family="Times,serif" font-size="14.00">(?, 128)</text>
<polyline fill="none" stroke="black" points="281.5,-189.5 352.5,-189.5 "/>
<text text-anchor="middle" x="317" y="-174.3" font-family="Times,serif" font-size="14.00">(?, 64)</text>
</g>
<!-- 140421813775280&#45;&gt;140421813801888 -->
<g id="edge6" class="edge">
<title>140421813775280&#45;&gt;140421813801888</title>
<path fill="none" stroke="black" d="M190.5,-249.37C190.5,-241.15 190.5,-231.66 190.5,-222.73"/>
<polygon fill="black" stroke="black" points="194,-222.61 190.5,-212.61 187,-222.61 194,-222.61"/>
</g>
<!-- 140421813803856 -->
<g id="node8" class="node">
<title>140421813803856</title>
<polygon fill="none" stroke="black" points="33,-83.5 33,-129.5 348,-129.5 348,-83.5 33,-83.5"/>
<text text-anchor="middle" x="125.5" y="-102.8" font-family="Times,serif" font-size="14.00">Hidden_Layer_3: Dense</text>
<polyline fill="none" stroke="black" points="218,-83.5 218,-129.5 "/>
<text text-anchor="middle" x="252" y="-114.3" font-family="Times,serif" font-size="14.00">input:</text>
<polyline fill="none" stroke="black" points="218,-106.5 286,-106.5 "/>
<text text-anchor="middle" x="252" y="-91.3" font-family="Times,serif" font-size="14.00">output:</text>
<polyline fill="none" stroke="black" points="286,-83.5 286,-129.5 "/>
<text text-anchor="middle" x="317" y="-114.3" font-family="Times,serif" font-size="14.00">(?, 64)</text>
<polyline fill="none" stroke="black" points="286,-106.5 348,-106.5 "/>
<text text-anchor="middle" x="317" y="-91.3" font-family="Times,serif" font-size="14.00">(?, 16)</text>
</g>
<!-- 140421813801888&#45;&gt;140421813803856 -->
<g id="edge7" class="edge">
<title>140421813801888&#45;&gt;140421813803856</title>
<path fill="none" stroke="black" d="M190.5,-166.37C190.5,-158.15 190.5,-148.66 190.5,-139.73"/>
<polygon fill="black" stroke="black" points="194,-139.61 190.5,-129.61 187,-139.61 194,-139.61"/>
</g>
<!-- 140421813826368 -->
<g id="node9" class="node">
<title>140421813826368</title>
<polygon fill="none" stroke="black" points="48,-0.5 48,-46.5 333,-46.5 333,-0.5 48,-0.5"/>
<text text-anchor="middle" x="125.5" y="-19.8" font-family="Times,serif" font-size="14.00">dense_1081: Dense</text>
<polyline fill="none" stroke="black" points="203,-0.5 203,-46.5 "/>
<text text-anchor="middle" x="237" y="-31.3" font-family="Times,serif" font-size="14.00">input:</text>
<polyline fill="none" stroke="black" points="203,-23.5 271,-23.5 "/>
<text text-anchor="middle" x="237" y="-8.3" font-family="Times,serif" font-size="14.00">output:</text>
<polyline fill="none" stroke="black" points="271,-0.5 271,-46.5 "/>
<text text-anchor="middle" x="302" y="-31.3" font-family="Times,serif" font-size="14.00">(?, 16)</text>
<polyline fill="none" stroke="black" points="271,-23.5 333,-23.5 "/>
<text text-anchor="middle" x="302" y="-8.3" font-family="Times,serif" font-size="14.00">(?, 14)</text>
</g>
<!-- 140421813803856&#45;&gt;140421813826368 -->
<g id="edge8" class="edge">
<title>140421813803856&#45;&gt;140421813826368</title>
<path fill="none" stroke="black" d="M190.5,-83.37C190.5,-75.15 190.5,-65.66 190.5,-56.73"/>
<polygon fill="black" stroke="black" points="194,-56.61 190.5,-46.61 187,-56.61 194,-56.61"/>
</g>
</g>
</svg>
