<?xml version="1.0" encoding="UTF-8" standalone="no"?>
<!DOCTYPE svg PUBLIC "-//W3C//DTD SVG 1.1//EN"
 "http://www.w3.org/Graphics/SVG/1.1/DTD/svg11.dtd">
<!-- Generated by graphviz version 2.43.0 (0)
 -->
<!-- Title: G Pages: 1 -->
<svg width="757pt" height="1131pt"
 viewBox="0.00 0.00 426.00 636.00" xmlns="http://www.w3.org/2000/svg" xmlns:xlink="http://www.w3.org/1999/xlink">
<g id="graph0" class="graph" transform="scale(0.56 0.56) rotate(0) translate(4 632)">
<title>G</title>
<polygon fill="white" stroke="transparent" points="-4,4 -4,-632 422,-632 422,4 -4,4"/>
<!-- 140422616147280 -->
<g id="node1" class="node">
<title>140422616147280</title>
<polygon fill="none" stroke="black" points="13.5,-581.5 13.5,-627.5 404.5,-627.5 404.5,-581.5 13.5,-581.5"/>
<text text-anchor="middle" x="130" y="-600.8" font-family="Times,serif" font-size="14.00">conv1d_241_input: InputLayer</text>
<polyline fill="none" stroke="black" points="246.5,-581.5 246.5,-627.5 "/>
<text text-anchor="middle" x="280.5" y="-612.3" font-family="Times,serif" font-size="14.00">input:</text>
<polyline fill="none" stroke="black" points="246.5,-604.5 314.5,-604.5 "/>
<text text-anchor="middle" x="280.5" y="-589.3" font-family="Times,serif" font-size="14.00">output:</text>
<polyline fill="none" stroke="black" points="314.5,-581.5 314.5,-627.5 "/>
<text text-anchor="middle" x="359.5" y="-612.3" font-family="Times,serif" font-size="14.00">[(?, 3, 14)]</text>
<polyline fill="none" stroke="black" points="314.5,-604.5 404.5,-604.5 "/>
<text text-anchor="middle" x="359.5" y="-589.3" font-family="Times,serif" font-size="14.00">[(?, 3, 14)]</text>
</g>
<!-- 140422620823312 -->
<g id="node2" class="node">
<title>140422620823312</title>
<polygon fill="none" stroke="black" points="51.5,-498.5 51.5,-544.5 366.5,-544.5 366.5,-498.5 51.5,-498.5"/>
<text text-anchor="middle" x="135" y="-517.8" font-family="Times,serif" font-size="14.00">conv1d_241: Conv1D</text>
<polyline fill="none" stroke="black" points="218.5,-498.5 218.5,-544.5 "/>
<text text-anchor="middle" x="252.5" y="-529.3" font-family="Times,serif" font-size="14.00">input:</text>
<polyline fill="none" stroke="black" points="218.5,-521.5 286.5,-521.5 "/>
<text text-anchor="middle" x="252.5" y="-506.3" font-family="Times,serif" font-size="14.00">output:</text>
<polyline fill="none" stroke="black" points="286.5,-498.5 286.5,-544.5 "/>
<text text-anchor="middle" x="326.5" y="-529.3" font-family="Times,serif" font-size="14.00">(?, 3, 14)</text>
<polyline fill="none" stroke="black" points="286.5,-521.5 366.5,-521.5 "/>
<text text-anchor="middle" x="326.5" y="-506.3" font-family="Times,serif" font-size="14.00">(?, 2, 16)</text>
</g>
<!-- 140422616147280&#45;&gt;140422620823312 -->
<g id="edge1" class="edge">
<title>140422616147280&#45;&gt;140422620823312</title>
<path fill="none" stroke="black" d="M209,-581.37C209,-573.15 209,-563.66 209,-554.73"/>
<polygon fill="black" stroke="black" points="212.5,-554.61 209,-544.61 205.5,-554.61 212.5,-554.61"/>
</g>
<!-- 140422616220000 -->
<g id="node3" class="node">
<title>140422616220000</title>
<polygon fill="none" stroke="black" points="0,-415.5 0,-461.5 418,-461.5 418,-415.5 0,-415.5"/>
<text text-anchor="middle" x="135" y="-434.8" font-family="Times,serif" font-size="14.00">max_pooling1d_241: MaxPooling1D</text>
<polyline fill="none" stroke="black" points="270,-415.5 270,-461.5 "/>
<text text-anchor="middle" x="304" y="-446.3" font-family="Times,serif" font-size="14.00">input:</text>
<polyline fill="none" stroke="black" points="270,-438.5 338,-438.5 "/>
<text text-anchor="middle" x="304" y="-423.3" font-family="Times,serif" font-size="14.00">output:</text>
<polyline fill="none" stroke="black" points="338,-415.5 338,-461.5 "/>
<text text-anchor="middle" x="378" y="-446.3" font-family="Times,serif" font-size="14.00">(?, 2, 16)</text>
<polyline fill="none" stroke="black" points="338,-438.5 418,-438.5 "/>
<text text-anchor="middle" x="378" y="-423.3" font-family="Times,serif" font-size="14.00">(?, 1, 16)</text>
</g>
<!-- 140422620823312&#45;&gt;140422616220000 -->
<g id="edge2" class="edge">
<title>140422620823312&#45;&gt;140422616220000</title>
<path fill="none" stroke="black" d="M209,-498.37C209,-490.15 209,-480.66 209,-471.73"/>
<polygon fill="black" stroke="black" points="212.5,-471.61 209,-461.61 205.5,-471.61 212.5,-471.61"/>
</g>
<!-- 140422616220960 -->
<g id="node4" class="node">
<title>140422616220960</title>
<polygon fill="none" stroke="black" points="56,-332.5 56,-378.5 362,-378.5 362,-332.5 56,-332.5"/>
<text text-anchor="middle" x="135" y="-351.8" font-family="Times,serif" font-size="14.00">flatten_241: Flatten</text>
<polyline fill="none" stroke="black" points="214,-332.5 214,-378.5 "/>
<text text-anchor="middle" x="248" y="-363.3" font-family="Times,serif" font-size="14.00">input:</text>
<polyline fill="none" stroke="black" points="214,-355.5 282,-355.5 "/>
<text text-anchor="middle" x="248" y="-340.3" font-family="Times,serif" font-size="14.00">output:</text>
<polyline fill="none" stroke="black" points="282,-332.5 282,-378.5 "/>
<text text-anchor="middle" x="322" y="-363.3" font-family="Times,serif" font-size="14.00">(?, 1, 16)</text>
<polyline fill="none" stroke="black" points="282,-355.5 362,-355.5 "/>
<text text-anchor="middle" x="322" y="-340.3" font-family="Times,serif" font-size="14.00">(?, 16)</text>
</g>
<!-- 140422616220000&#45;&gt;140422616220960 -->
<g id="edge3" class="edge">
<title>140422616220000&#45;&gt;140422616220960</title>
<path fill="none" stroke="black" d="M209,-415.37C209,-407.15 209,-397.66 209,-388.73"/>
<polygon fill="black" stroke="black" points="212.5,-388.61 209,-378.61 205.5,-388.61 212.5,-388.61"/>
</g>
<!-- 140422616221728 -->
<g id="node5" class="node">
<title>140422616221728</title>
<polygon fill="none" stroke="black" points="47,-249.5 47,-295.5 371,-295.5 371,-249.5 47,-249.5"/>
<text text-anchor="middle" x="139.5" y="-268.8" font-family="Times,serif" font-size="14.00">Hidden_Layer_1: Dense</text>
<polyline fill="none" stroke="black" points="232,-249.5 232,-295.5 "/>
<text text-anchor="middle" x="266" y="-280.3" font-family="Times,serif" font-size="14.00">input:</text>
<polyline fill="none" stroke="black" points="232,-272.5 300,-272.5 "/>
<text text-anchor="middle" x="266" y="-257.3" font-family="Times,serif" font-size="14.00">output:</text>
<polyline fill="none" stroke="black" points="300,-249.5 300,-295.5 "/>
<text text-anchor="middle" x="335.5" y="-280.3" font-family="Times,serif" font-size="14.00">(?, 16)</text>
<polyline fill="none" stroke="black" points="300,-272.5 371,-272.5 "/>
<text text-anchor="middle" x="335.5" y="-257.3" font-family="Times,serif" font-size="14.00">(?, 128)</text>
</g>
<!-- 140422616220960&#45;&gt;140422616221728 -->
<g id="edge4" class="edge">
<title>140422616220960&#45;&gt;140422616221728</title>
<path fill="none" stroke="black" d="M209,-332.37C209,-324.15 209,-314.66 209,-305.73"/>
<polygon fill="black" stroke="black" points="212.5,-305.61 209,-295.61 205.5,-305.61 212.5,-305.61"/>
</g>
<!-- 140422616223504 -->
<g id="node6" class="node">
<title>140422616223504</title>
<polygon fill="none" stroke="black" points="47,-166.5 47,-212.5 371,-212.5 371,-166.5 47,-166.5"/>
<text text-anchor="middle" x="139.5" y="-185.8" font-family="Times,serif" font-size="14.00">Hidden_Layer_2: Dense</text>
<polyline fill="none" stroke="black" points="232,-166.5 232,-212.5 "/>
<text text-anchor="middle" x="266" y="-197.3" font-family="Times,serif" font-size="14.00">input:</text>
<polyline fill="none" stroke="black" points="232,-189.5 300,-189.5 "/>
<text text-anchor="middle" x="266" y="-174.3" font-family="Times,serif" font-size="14.00">output:</text>
<polyline fill="none" stroke="black" points="300,-166.5 300,-212.5 "/>
<text text-anchor="middle" x="335.5" y="-197.3" font-family="Times,serif" font-size="14.00">(?, 128)</text>
<polyline fill="none" stroke="black" points="300,-189.5 371,-189.5 "/>
<text text-anchor="middle" x="335.5" y="-174.3" font-family="Times,serif" font-size="14.00">(?, 64)</text>
</g>
<!-- 140422616221728&#45;&gt;140422616223504 -->
<g id="edge5" class="edge">
<title>140422616221728&#45;&gt;140422616223504</title>
<path fill="none" stroke="black" d="M209,-249.37C209,-241.15 209,-231.66 209,-222.73"/>
<polygon fill="black" stroke="black" points="212.5,-222.61 209,-212.61 205.5,-222.61 212.5,-222.61"/>
</g>
<!-- 140422616237728 -->
<g id="node7" class="node">
<title>140422616237728</title>
<polygon fill="none" stroke="black" points="51.5,-83.5 51.5,-129.5 366.5,-129.5 366.5,-83.5 51.5,-83.5"/>
<text text-anchor="middle" x="144" y="-102.8" font-family="Times,serif" font-size="14.00">Hidden_Layer_3: Dense</text>
<polyline fill="none" stroke="black" points="236.5,-83.5 236.5,-129.5 "/>
<text text-anchor="middle" x="270.5" y="-114.3" font-family="Times,serif" font-size="14.00">input:</text>
<polyline fill="none" stroke="black" points="236.5,-106.5 304.5,-106.5 "/>
<text text-anchor="middle" x="270.5" y="-91.3" font-family="Times,serif" font-size="14.00">output:</text>
<polyline fill="none" stroke="black" points="304.5,-83.5 304.5,-129.5 "/>
<text text-anchor="middle" x="335.5" y="-114.3" font-family="Times,serif" font-size="14.00">(?, 64)</text>
<polyline fill="none" stroke="black" points="304.5,-106.5 366.5,-106.5 "/>
<text text-anchor="middle" x="335.5" y="-91.3" font-family="Times,serif" font-size="14.00">(?, 16)</text>
</g>
<!-- 140422616223504&#45;&gt;140422616237728 -->
<g id="edge6" class="edge">
<title>140422616223504&#45;&gt;140422616237728</title>
<path fill="none" stroke="black" d="M209,-166.37C209,-158.15 209,-148.66 209,-139.73"/>
<polygon fill="black" stroke="black" points="212.5,-139.61 209,-129.61 205.5,-139.61 212.5,-139.61"/>
</g>
<!-- 140422616239600 -->
<g id="node8" class="node">
<title>140422616239600</title>
<polygon fill="none" stroke="black" points="71,-0.5 71,-46.5 347,-46.5 347,-0.5 71,-0.5"/>
<text text-anchor="middle" x="144" y="-19.8" font-family="Times,serif" font-size="14.00">dense_241: Dense</text>
<polyline fill="none" stroke="black" points="217,-0.5 217,-46.5 "/>
<text text-anchor="middle" x="251" y="-31.3" font-family="Times,serif" font-size="14.00">input:</text>
<polyline fill="none" stroke="black" points="217,-23.5 285,-23.5 "/>
<text text-anchor="middle" x="251" y="-8.3" font-family="Times,serif" font-size="14.00">output:</text>
<polyline fill="none" stroke="black" points="285,-0.5 285,-46.5 "/>
<text text-anchor="middle" x="316" y="-31.3" font-family="Times,serif" font-size="14.00">(?, 16)</text>
<polyline fill="none" stroke="black" points="285,-23.5 347,-23.5 "/>
<text text-anchor="middle" x="316" y="-8.3" font-family="Times,serif" font-size="14.00">(?, 14)</text>
</g>
<!-- 140422616237728&#45;&gt;140422616239600 -->
<g id="edge7" class="edge">
<title>140422616237728&#45;&gt;140422616239600</title>
<path fill="none" stroke="black" d="M209,-83.37C209,-75.15 209,-65.66 209,-56.73"/>
<polygon fill="black" stroke="black" points="212.5,-56.61 209,-46.61 205.5,-56.61 212.5,-56.61"/>
</g>
</g>
</svg>
